<svg xmlns="http://www.w3.org/2000/svg" xmlns:xlink="http://www.w3.org/1999/xlink" viewBox="0 0 121.079 60.794" height="229.774" width="457.621"><defs><symbol overflow="visible" id="a"><path style="stroke:none" d="m3.484-3.875-1.28-.297c-.626-.156-1-.687-1-1.266 0-.703.53-1.312 1.312-1.312 1.656 0 1.875 1.64 1.937 2.078.016.063.016.125.125.125.125 0 .125-.047.125-.234v-2c0-.172 0-.25-.11-.25-.062 0-.077.015-.14.14l-.36.563c-.296-.297-.702-.703-1.593-.703-1.11 0-1.938.875-1.938 1.937 0 .828.532 1.563 1.297 1.828.11.032.625.157 1.329.329.265.062.562.14.843.5.203.265.313.593.313.921 0 .704-.5 1.422-1.344 1.422-.281 0-1.047-.047-1.578-.531-.578-.547-.61-1.172-.61-1.531-.015-.11-.093-.11-.125-.11-.125 0-.125.079-.125.25v2c0 .172 0 .235.11.235.062 0 .078-.016.14-.125 0-.016.032-.047.36-.578.312.343.953.703 1.844.703 1.156 0 1.953-.969 1.953-2.078 0-.985-.657-1.813-1.485-2.016zm0 0"/></symbol><symbol overflow="visible" id="b"><path style="stroke:none" d="M3.89-.781v.89L5.329 0v-.313c-.687 0-.766-.062-.766-.562v-3.531l-1.468.11v.312c.687 0 .781.062.781.562v1.766c0 .875-.484 1.547-1.219 1.547-.828 0-.875-.47-.875-.985v-3.312l-1.468.11v.312c.78 0 .78.03.78.906v1.5c0 .781 0 1.687 1.516 1.687.563 0 1-.28 1.282-.89zm0 0"/></symbol><symbol overflow="visible" id="c"><path style="stroke:none" d="M1.719-3.766v-3.156l-1.438.11v.312c.703 0 .781.063.781.563V0h.25c0-.016.079-.156.36-.625.14.234.562.734 1.297.734 1.187 0 2.219-.984 2.219-2.265 0-1.266-.97-2.25-2.11-2.25-.781 0-1.203.468-1.36.64zM1.75-1.14v-2.046c0-.188 0-.204.11-.36.39-.562.937-.64 1.171-.64.453 0 .813.265 1.047.64.266.406.281.969.281 1.39 0 .36-.015.954-.296 1.407-.22.313-.594.64-1.125.64-.454 0-.813-.234-1.047-.609-.141-.203-.141-.234-.141-.422Zm0 0"/></symbol><symbol overflow="visible" id="d"><path style="stroke:none" d="M2.078-1.938c.219.047 1.031.204 1.031.922 0 .5-.343.907-1.125.907-.843 0-1.203-.563-1.39-1.422-.031-.125-.031-.157-.14-.157-.126 0-.126.063-.126.235v1.328c0 .172 0 .234.11.234C.483.11.5.094.688-.094.703-.109.703-.125.89-.312c.437.406.89.421 1.093.421 1.141 0 1.61-.671 1.61-1.39 0-.516-.297-.828-.422-.938-.328-.328-.719-.406-1.14-.484-.563-.11-1.22-.235-1.22-.813 0-.359.25-.765 1.11-.765 1.094 0 1.156.906 1.172 1.203 0 .094.094.094.11.094.14 0 .14-.047.14-.235v-1.015c0-.157 0-.235-.11-.235-.046 0-.078 0-.203.125-.031.032-.125.125-.172.157-.375-.282-.78-.282-.937-.282-1.219 0-1.594.672-1.594 1.235 0 .343.156.625.422.843.328.25.61.313 1.328.454zm0 0"/></symbol><symbol overflow="visible" id="e"><path style="stroke:none" d="M1.172-2.172c0-1.625.812-2.047 1.344-2.047.093 0 .718.016 1.062.375-.406.031-.469.328-.469.453 0 .266.188.454.454.454.265 0 .468-.157.468-.47 0-.671-.765-1.062-1.531-1.062C1.25-4.469.344-3.39.344-2.156c0 1.281.984 2.265 2.14 2.265 1.329 0 1.657-1.203 1.657-1.296 0-.094-.11-.094-.141-.094-.078 0-.11.031-.125.093C3.594-.265 2.937-.14 2.578-.14c-.531 0-1.406-.421-1.406-2.03zm0 0"/></symbol><symbol overflow="visible" id="f"><path style="stroke:none" d="M1.672-3.313v-1.093l-1.39.11v.312c.702 0 .78.062.78.562V-.75c0 .438-.109.438-.78.438V0c.39-.016.859-.031 1.14-.031.39 0 .86 0 1.266.031v-.313h-.22c-.734 0-.75-.109-.75-.468v-1.531c0-.985.423-1.876 1.173-1.876.062 0 .093 0 .109.016-.031 0-.234.125-.234.39 0 .266.218.423.437.423a.421.421 0 0 0 .422-.438c0-.312-.313-.61-.734-.61-.735 0-1.094.673-1.22 1.095zm0 0"/></symbol><symbol overflow="visible" id="g"><path style="stroke:none" d="m1.766-4.406-1.391.11v.312c.64 0 .734.062.734.546V-.75c0 .438-.109.438-.78.438V0c.312-.016.859-.031 1.093-.031.36 0 .703.015 1.047.031v-.313c-.672 0-.703-.046-.703-.437zm.03-1.735a.514.514 0 0 0-.515-.53.537.537 0 0 0-.531.53c0 .266.219.532.531.532a.514.514 0 0 0 .516-.532zm0 0"/></symbol><symbol overflow="visible" id="h"><path style="stroke:none" d="M1.719-3.75v-.656l-1.438.11v.312c.703 0 .781.062.781.5v4.656c0 .453-.109.453-.78.453v.313c.343-.016.859-.032 1.109-.032.28 0 .78.016 1.125.032v-.313c-.657 0-.766 0-.766-.453V-.594c.047.172.469.703 1.219.703 1.187 0 2.219-.984 2.219-2.265 0-1.266-.954-2.25-2.079-2.25-.78 0-1.203.437-1.39.656zm.031 2.61v-2.22c.281-.515.766-.796 1.281-.796.735 0 1.328.875 1.328 2C4.36-.953 3.672-.11 2.938-.11c-.407 0-.782-.204-1.047-.61-.141-.203-.141-.219-.141-.422Zm0 0"/></symbol><symbol overflow="visible" id="i"><path style="stroke:none" d="M1.719-3.984h1.437v-.313H1.72v-1.828h-.25c0 .813-.297 1.875-1.282 1.922v.219h.844v2.75c0 1.218.938 1.343 1.297 1.343.703 0 .985-.703.985-1.343v-.563h-.25v.547c0 .734-.297 1.11-.672 1.11-.672 0-.672-.907-.672-1.079zm0 0"/></symbol><symbol overflow="visible" id="j"><path style="stroke:none" d="M1.094-3.422V-.75c0 .438-.11.438-.782.438V0c.36-.016.86-.031 1.141-.031.25 0 .766.015 1.11.031v-.313c-.672 0-.782 0-.782-.437v-1.844c0-1.031.719-1.594 1.344-1.594.64 0 .75.532.75 1.11V-.75c0 .438-.11.438-.781.438V0c.344-.016.86-.031 1.125-.031.25 0 .781.015 1.11.031v-.313c-.516 0-.766 0-.766-.296v-1.907c0-.859 0-1.156-.313-1.515-.14-.172-.469-.375-1.047-.375-.734 0-1.203.422-1.484 1.047v-1.047l-1.407.11v.312c.704 0 .782.062.782.562zm0 0"/></symbol><symbol overflow="visible" id="k"><path style="stroke:none" d="M1.094-3.422V-.75c0 .438-.11.438-.782.438V0c.36-.016.86-.031 1.141-.031.25 0 .766.015 1.11.031v-.313c-.672 0-.782 0-.782-.437v-1.844c0-1.031.719-1.594 1.344-1.594.64 0 .75.532.75 1.11V-.75c0 .438-.11.438-.781.438V0c.344-.016.86-.031 1.125-.031.25 0 .781.015 1.11.031v-.313c-.657 0-.766 0-.766-.437v-1.844c0-1.031.703-1.594 1.343-1.594.625 0 .735.532.735 1.11V-.75c0 .438-.11.438-.782.438V0c.344-.016.86-.031 1.125-.031.266 0 .782.015 1.125.031v-.313c-.515 0-.765 0-.78-.296v-1.907c0-.859 0-1.156-.313-1.515-.141-.172-.47-.375-1.047-.375-.828 0-1.282.593-1.438.984-.14-.875-.875-.984-1.328-.984-.734 0-1.203.422-1.484 1.047v-1.047l-1.407.11v.312c.704 0 .782.062.782.562zm0 0"/></symbol><symbol overflow="visible" id="l"><path style="stroke:none" d="M3.313-.75c.046.39.312.813.78.813.22 0 .829-.141.829-.954v-.562h-.25v.562c0 .579-.25.641-.36.641-.328 0-.375-.453-.375-.5v-1.984c0-.422 0-.813-.359-1.188-.39-.39-.89-.547-1.36-.547-.827 0-1.515.469-1.515 1.125 0 .297.203.469.469.469a.435.435 0 0 0 .453-.453c0-.125-.047-.453-.516-.453.282-.36.766-.469 1.079-.469.5 0 1.062.39 1.062 1.281v.36c-.516.03-1.203.062-1.828.359-.75.344-1 .86-1 1.297 0 .812.969 1.062 1.594 1.062.656 0 1.109-.406 1.296-.859zM3.25-2.39v1c0 .937-.719 1.28-1.172 1.28-.484 0-.89-.343-.89-.843 0-.547.421-1.375 2.062-1.438zm0 0"/></symbol><symbol overflow="visible" id="m"><path style="stroke:none" d="M1.094-.75c0 .438-.11.438-.782.438V0c.36-.016.86-.031 1.141-.031.25 0 .766.015 1.11.031v-.313c-.672 0-.782 0-.782-.437v-1.844c0-1.031.719-1.594 1.344-1.594.64 0 .75.532.75 1.11V-.75c0 .438-.11.438-.781.438V0c.344-.016.86-.031 1.125-.031.25 0 .781.015 1.11.031v-.313c-.516 0-.766 0-.766-.296v-1.907c0-.859 0-1.156-.313-1.515-.14-.172-.469-.375-1.047-.375-.844 0-1.281.593-1.453.984v-3.5l-1.438.11v.312c.704 0 .782.063.782.563zm0 0"/></symbol><symbol overflow="visible" id="n"><path style="stroke:none" d="M4.688-2.14c0-1.266-.985-2.329-2.188-2.329C1.25-4.469.281-3.375.281-2.14A2.22 2.22 0 0 0 2.484.11c1.204 0 2.204-.984 2.204-2.25zM2.5-.14c-.438 0-.875-.204-1.14-.672-.25-.438-.25-1.047-.25-1.407 0-.39 0-.922.234-1.36a1.347 1.347 0 0 1 1.14-.671c.438 0 .86.219 1.125.656.266.422.266 1 .266 1.375 0 .36 0 .906-.219 1.344-.234.453-.672.734-1.156.734Zm0 0"/></symbol><symbol overflow="visible" id="o"><path style="stroke:none" d="M3.781-.547V.11L5.25 0v-.313c-.688 0-.781-.062-.781-.562v-6.047l-1.422.11v.312c.687 0 .765.063.765.563v2.156a1.582 1.582 0 0 0-1.25-.625c-1.171 0-2.218.984-2.218 2.265 0 1.266.969 2.25 2.11 2.25.64 0 1.077-.343 1.327-.656zm0-2.672v2.047c0 .172 0 .188-.11.36-.296.484-.733.703-1.171.703-.453 0-.813-.266-1.047-.641-.25-.406-.281-.969-.281-1.39 0-.36.016-.954.297-1.407.218-.312.593-.64 1.14-.64.344 0 .766.156 1.063.593.11.172.11.188.11.375zm0 0"/></symbol><symbol overflow="visible" id="p"><path style="stroke:none" d="M1.11-2.516C1.171-4 2.015-4.25 2.36-4.25c1.015 0 1.124 1.344 1.124 1.734zm0 .22h2.78c.22 0 .25 0 .25-.22 0-.984-.546-1.953-1.78-1.953C1.202-4.469.28-3.437.28-2.187.281-.86 1.328.108 2.47.108 3.688.11 4.14-1 4.14-1.187c0-.094-.079-.125-.141-.125-.078 0-.11.062-.125.14C3.531-.14 2.625-.14 2.531-.14c-.5 0-.89-.296-1.125-.671-.297-.47-.297-1.125-.297-1.485zm0 0"/></symbol><symbol overflow="visible" id="q"><path style="stroke:none" d="M6.172-3.344c.172-.5.484-.64.844-.64v-.313c-.235.016-.516.031-.735.031-.297 0-.734-.015-.922-.03v.312c.36 0 .579.187.579.468 0 .063 0 .094-.063.22L4.969-.75l-.985-2.781c-.03-.125-.046-.14-.046-.188 0-.265.39-.265.593-.265v-.313c-.297.016-.797.031-1.047.031-.296 0-.578-.015-.875-.03v.312c.36 0 .516.015.625.14.047.063.157.36.22.547L2.608-.875l-.953-2.656c-.047-.125-.047-.14-.047-.188 0-.265.391-.265.579-.265v-.313c-.297.016-.86.031-1.079.031-.046 0-.578-.015-.937-.03v.312c.5 0 .625.03.75.343l1.25 3.532c.047.14.078.218.203.218.14 0 .156-.062.203-.203l1.016-2.812L4.609-.078c.032.11.063.187.204.187.125 0 .156-.093.187-.187zm0 0"/></symbol><symbol overflow="visible" id="t"><path style="stroke:none" d="M1.906-.531a.534.534 0 0 0-.515-.531.537.537 0 0 0-.532.53.524.524 0 1 0 1.047 0Zm0 0"/></symbol><symbol overflow="visible" id="u"><path style="stroke:none" d="M6.64-6.75H.548L.359-4.5h.25C.75-6.11.891-6.438 2.406-6.438c.172 0 .438 0 .531.016.22.047.22.156.22.375V-.78c0 .328 0 .469-1.048.469h-.406V0c.406-.031 1.422-.031 1.89-.031.454 0 1.485 0 1.891.031v-.313h-.406c-1.047 0-1.047-.14-1.047-.468v-5.266c0-.187 0-.328.188-.375.11-.016.375-.016.562-.016 1.516 0 1.657.329 1.797 1.938h.25zm0 0"/></symbol><symbol overflow="visible" id="v"><path style="stroke:none" d="M2.86-2.344c.296-.375.671-.86.921-1.125.313-.36.719-.515 1.188-.515v-.313c-.266.016-.563.031-.828.031-.297 0-.829-.015-.954-.03v.312c.22.015.297.14.297.312 0 .156-.109.281-.156.344l-.61.781-.78-1.015c-.094-.094-.094-.11-.094-.172 0-.157.156-.25.343-.25v-.313c-.25.016-.906.031-1.078.031-.203 0-.671-.015-.937-.03v.312c.703 0 .703 0 1.172.609l.984 1.281-.937 1.188a1.566 1.566 0 0 1-1.266.594V0c.25-.016.563-.031.828-.031.281 0 .703.015.938.031v-.313c-.22-.03-.282-.156-.282-.312 0-.219.282-.547.891-1.266l.766 1c.078.11.203.266.203.329 0 .093-.094.25-.36.25V0c.297-.016.86-.031 1.079-.031.265 0 .656.015.953.031v-.313c-.532 0-.72-.015-.938-.312zm0 0"/></symbol><symbol overflow="visible" id="E"><path style="stroke:none" d="M6.844-3.266c.156 0 .343 0 .343-.187 0-.203-.187-.203-.328-.203H.891c-.141 0-.329 0-.329.203 0 .187.188.187.329.187zm.015 1.938c.141 0 .329 0 .329-.203 0-.188-.188-.188-.344-.188H.89c-.141 0-.329 0-.329.188 0 .203.188.203.329.203zm0 0"/></symbol><symbol overflow="visible" id="F"><path style="stroke:none" d="M3.297 2.39c0-.03 0-.046-.172-.218C1.891.922 1.562-.968 1.562-2.5c0-1.734.375-3.469 1.61-4.703.125-.125.125-.14.125-.172 0-.078-.031-.11-.094-.11-.11 0-1 .688-1.594 1.954C1.11-4.438.984-3.328.984-2.5c0 .781.11 1.984.657 3.125C2.25 1.844 3.094 2.5 3.203 2.5c.063 0 .094-.031.094-.11zm0 0"/></symbol><symbol overflow="visible" id="K"><path style="stroke:none" d="M2.875-2.5c0-.766-.11-1.969-.656-3.11C1.625-6.827.766-7.483.672-7.483a.107.107 0 0 0-.11.109c0 .031 0 .047.188.234.984.985 1.547 2.563 1.547 4.641 0 1.719-.36 3.469-1.594 4.719-.14.125-.14.14-.14.172 0 .062.046.109.109.109.094 0 1-.688 1.578-1.953.516-1.094.625-2.203.625-3.047Zm0 0"/></symbol><symbol overflow="visible" id="L"><path style="stroke:none" d="M9.063-5.828c.171-.578.609-.672 1-.672v-.313c-.297.032-.61.032-.907.032-.297 0-.937-.016-1.187-.032v.313c.672.016.86.344.86.531 0 .063-.032.14-.048.203l-1.5 4.594-1.593-4.875c0-.047-.032-.11-.032-.156 0-.297.578-.297.844-.297v-.313c-.36.032-1.031.032-1.422.032-.375 0-.797-.016-1.203-.032v.313c.563 0 .766 0 .89.36l.22.702-1.391 4.266L2-6.078c-.016-.016-.031-.094-.031-.125 0-.297.578-.297.843-.297v-.313c-.359.032-1.03.032-1.421.032-.375 0-.797-.016-1.22-.032v.313c.75 0 .798.047.923.422L3.078.032c.031.093.063.187.188.187.14 0 .156-.063.203-.203l1.64-5.063L6.766.031c.03.094.062.188.187.188.14 0 .172-.063.203-.203zm0 0"/></symbol><symbol overflow="visible" id="M"><path style="stroke:none" d="M2.219-1.719c-.875 0-.875-1-.875-1.218 0-.266.015-.594.156-.844.078-.11.313-.39.719-.39.86 0 .86.984.86 1.218 0 .265 0 .594-.157.844-.078.109-.313.39-.703.39Zm-1.156.39c0-.03 0-.265.156-.468.39.281.812.313 1 .313.922 0 1.61-.688 1.61-1.454 0-.374-.157-.734-.407-.968.36-.344.719-.39.89-.39.032 0 .079 0 .11.015-.11.031-.172.14-.172.265 0 .172.14.282.297.282a.28.28 0 0 0 .281-.297c0-.172-.11-.485-.5-.485-.203 0-.64.063-1.062.47a1.652 1.652 0 0 0-1.047-.36c-.938 0-1.625.687-1.625 1.453 0 .437.219.812.469 1.031-.125.14-.313.469-.313.828 0 .313.14.688.453.89-.61.157-.922.595-.922.985 0 .719.985 1.266 2.203 1.266 1.172 0 2.204-.5 2.204-1.281 0-.344-.125-.86-.641-1.141-.531-.266-1.11-.266-1.719-.266-.25 0-.672 0-.75-.015-.312-.047-.516-.344-.516-.672ZM2.5 1.829C1.484 1.828.797 1.312.797.781c0-.453.375-.828.812-.844h.594c.86 0 1.969 0 1.969.844 0 .547-.703 1.047-1.672 1.047zm0 0"/></symbol><symbol overflow="visible" id="N"><path style="stroke:none" d="m1.766-6.922-1.438.11v.312c.703 0 .781.063.781.563V-.75c0 .438-.109.438-.78.438V0c.327-.016.859-.031 1.109-.031s.734.015 1.109.031v-.313c-.672 0-.781 0-.781-.437zm0 0"/></symbol><symbol overflow="visible" id="P"><path style="stroke:none" d="M1.75-4.297v-1.156c0-.875.469-1.36.906-1.36.031 0 .188 0 .328.079a.443.443 0 0 0-.296.421c0 .22.156.422.437.422s.438-.203.438-.437c0-.375-.376-.703-.907-.703-.687 0-1.547.531-1.547 1.593v1.141H.33v.313h.78V-.75c0 .438-.109.438-.765.438V0c.39-.016.86-.031 1.125-.031.406 0 .875 0 1.265.031v-.313h-.203c-.734 0-.75-.109-.75-.468v-3.203h1.125v-.313zm0 0"/></symbol><symbol overflow="visible" id="R"><path style="stroke:none" d="M5.797-2.578h-.25c-.11 1.015-.25 2.265-2 2.265h-.813c-.468 0-.484-.062-.484-.39v-5.313c0-.343 0-.484.938-.484h.328v-.313c-.36.032-1.266.032-1.672.032-.39 0-1.172 0-1.516-.032v.313h.234c.766 0 .797.11.797.469v5.25c0 .36-.03.469-.796.469H.328V0h5.188zm0 0"/></symbol><symbol overflow="visible" id="S"><path style="stroke:none" d="M1.906-3.766a.524.524 0 1 0-1.047 0c0 .282.235.532.532.532.28 0 .515-.25.515-.532zm0 3.235a.534.534 0 0 0-.515-.531.537.537 0 0 0-.532.53.524.524 0 1 0 1.047 0Zm0 0"/></symbol><symbol overflow="visible" id="Z"><path style="stroke:none" d="M2.938-6.375c0-.25 0-.266-.235-.266C2.078-6 1.203-6 .891-6v.313c.203 0 .78 0 1.296-.266v5.172c0 .36-.03.469-.921.469H.953V0c.344-.031 1.203-.031 1.61-.031.39 0 1.265 0 1.609.031v-.313h-.313c-.906 0-.921-.109-.921-.468zm0 0"/></symbol><symbol overflow="visible" id="aa"><path style="stroke:none" d="M5.906-.625c.14.219.532.61.64.61.095 0 .095-.079.095-.22v-1.734c0-.39.03-.437.687-.437v-.313c-.375 0-.922.031-1.219.031-.39 0-1.25 0-1.609-.03v.312h.328c.89 0 .922.11.922.469v.64c0 1.125-1.266 1.203-1.547 1.203-.64 0-2.625-.344-2.625-3.312 0-2.985 1.969-3.313 2.563-3.313 1.078 0 1.984.89 2.171 2.36.032.14.032.171.172.171.157 0 .157-.03.157-.234v-2.36c0-.171 0-.25-.11-.25-.047 0-.078 0-.156.126l-.5.734c-.328-.312-.86-.86-1.844-.86-1.86 0-3.468 1.579-3.468 3.626C.563-1.36 2.155.219 4.046.219c.734 0 1.531-.266 1.86-.844zm0 0"/></symbol><symbol overflow="visible" id="ab"><path style="stroke:none" d="M1.063-.75c0 .438-.11.438-.782.438V0c.328-.016.797-.031 1.078-.031.313 0 .704.015 1.11.031v-.313c-.672 0-.781 0-.781-.437v-1.031l.64-.547c.766 1.047 1.188 1.61 1.188 1.797 0 .187-.172.219-.36.219V0c.266-.016.86-.031 1.078-.031.282 0 .579.015.86.031v-.313c-.375 0-.594 0-.969-.53L2.859-2.626c-.015-.016-.062-.078-.062-.11 0-.03.719-.64.812-.718.625-.5 1.047-.531 1.25-.531v-.313c-.28.031-.406.031-.687.031-.36 0-.984-.015-1.125-.03v.312c.187 0 .297.109.297.25 0 .203-.14.312-.219.39L1.719-2.14v-4.78L.28-6.813v.312c.703 0 .781.063.781.563zm0 0"/></symbol><symbol overflow="visible" id="ae"><path style="stroke:none" d="M6.75-1.61H6.5a3.74 3.74 0 0 1-.188.72c-.046.156-.078.25-.656.25H4.86c.141-.563.438-1.047.891-1.704.469-.703.875-1.39.875-2.187 0-1.375-1.344-2.5-3.031-2.5-1.703 0-3.031 1.14-3.031 2.5 0 .797.406 1.484.875 2.187.437.656.75 1.14.89 1.703h-.797c-.578 0-.61-.093-.656-.234-.094-.234-.14-.484-.188-.734h-.25L.766 0h1.593c.22 0 .25 0 .25-.203 0-.703-.312-1.578-.53-2.219-.22-.578-.5-1.36-.5-2.11 0-1.593 1.109-2.28 2.015-2.28.953 0 2.015.718 2.015 2.28 0 .75-.28 1.5-.562 2.313-.156.422-.469 1.328-.469 2.016 0 .203.031.203.25.203h1.594zm0 0"/></symbol><symbol overflow="visible" id="af"><path style="stroke:none" d="M4.406-6.953c-.062-.14-.093-.188-.265-.188-.157 0-.188.047-.25.188L.516-.203c-.047.094-.047.11-.047.125C.469 0 .53 0 .688 0h6.921c.157 0 .22 0 .22-.078 0-.016 0-.031-.048-.125zm-.578.812L6.516-.75H1.14zm0 0"/></symbol><symbol overflow="visible" id="ag"><path style="stroke:none" d="M2.406-6.594c-.094-.218-.125-.218-.36-.218H.376v.312h.234c.766 0 .782.11.782.469v4.984c0 .266 0 .734-1.016.734V0c.344-.016.828-.031 1.156-.031.328 0 .828.015 1.172.031v-.313c-1.031 0-1.031-.468-1.031-.734v-5.375h.016L4.094-.219c.047.125.093.219.187.219.11 0 .14-.078.188-.188L6.922-6.5v5.719c0 .36-.016.469-.781.469h-.235V0c.36-.031 1.047-.031 1.438-.031.375 0 1.047 0 1.422.031v-.313h-.25c-.766 0-.782-.109-.782-.468v-5.25c0-.36.016-.469.782-.469h.25v-.313H7.078c-.266 0-.266.016-.328.188L4.562-1Zm0 0"/></symbol><symbol overflow="visible" id="ah"><path style="stroke:none" d="M3.297-3.984c.453 0 .515.125.515.53V-.75c0 .438-.109.438-.765.438V0c.328-.016.844-.031 1.094-.031.25 0 .75.015 1.109.031v-.313c-.672 0-.781 0-.781-.437v-3.672l-1.25.094c-.156.016-.172.016-.172.016-.031.015-.047.015-.188.015H1.688v-1.125c0-.984.859-1.39 1.468-1.39.297 0 .656.109.86.328-.407.03-.47.296-.47.468 0 .329.267.454.454.454.234 0 .453-.157.453-.454 0-.593-.547-1.015-1.281-1.015-.922 0-2.11.515-2.11 1.593v1.141H.266v.313h.796V-.75c0 .438-.109.438-.78.438V0c.327-.016.859-.031 1.109-.031S2.125-.016 2.5 0v-.313c-.672 0-.781 0-.781-.437v-3.234zm0 0"/></symbol><symbol overflow="visible" id="aj"><path style="stroke:none" d="M2.031-.016c0-.625-.25-1.046-.64-1.046-.36 0-.532.28-.532.53 0 .266.172.532.532.532a.578.578 0 0 0 .375-.14l.015-.016c.016 0 .016 0 .016.14 0 .641-.266 1.25-.703 1.72-.063.062-.078.077-.078.109 0 .078.046.109.093.109.125 0 .922-.781.922-1.938zm0 0"/></symbol><symbol overflow="visible" id="r"><path style="stroke:none" d="M3.719-3.766c-.188-.375-.469-.64-.922-.64-1.156 0-2.39 1.468-2.39 2.922C.406-.547.952.109 1.718.109c.203 0 .703-.046 1.297-.75a.91.91 0 0 0 .906.75c.36 0 .578-.234.75-.546a6.49 6.49 0 0 0 .297-.985c0-.11-.094-.11-.125-.11-.094 0-.11.048-.14.188-.173.64-.345 1.235-.75 1.235-.282 0-.298-.266-.298-.454 0-.218.016-.312.125-.75.11-.406.125-.515.219-.89l.36-1.39c.062-.282.062-.298.062-.345 0-.171-.11-.265-.281-.265-.25 0-.391.219-.422.437zm-.64 2.579c-.063.187-.063.203-.204.375-.438.546-.844.703-1.125.703-.5 0-.64-.547-.64-.938 0-.5.312-1.719.546-2.187.313-.579.75-.954 1.157-.954.64 0 .78.813.78.875a.562.562 0 0 1-.03.172zm0 0"/></symbol><symbol overflow="visible" id="w"><path style="stroke:none" d="M4.25-6.047c.078-.281.11-.344.234-.375.094-.016.422-.016.625-.016 1.016 0 1.454.032 1.454.813 0 .156-.032.547-.079.797 0 .047-.03.156-.03.187 0 .063.03.141.124.141.11 0 .125-.078.156-.234L7-6.47c.016-.047.016-.14.016-.172 0-.109-.094-.109-.266-.109H1.219c-.235 0-.25.016-.328.203l-.594 1.75c0 .016-.063.156-.063.188 0 .046.063.109.125.109.094 0 .11-.063.172-.219.531-1.547.797-1.718 2.266-1.718h.39c.282 0 .282.03.282.125a.775.775 0 0 1-.047.203L2.094-.781C2-.421 1.969-.312.906-.312c-.36 0-.422 0-.422.187C.484 0 .594 0 .656 0c.266 0 .547-.016.813-.016.281 0 .578-.015.86-.015.28 0 .546.015.827.015.281 0 .578.016.86.016.093 0 .218 0 .218-.203 0-.11-.078-.11-.343-.11-.235 0-.375 0-.625-.015-.297-.031-.375-.063-.375-.219 0-.015 0-.062.046-.203zm0 0"/></symbol><symbol overflow="visible" id="G"><path style="stroke:none" d="M3.328-3.016c.063-.25.297-1.171.985-1.171.046 0 .296 0 .5.125a.578.578 0 0 0-.47.546c0 .157.11.344.376.344a.546.546 0 0 0 .531-.578c0-.516-.578-.656-.922-.656-.578 0-.922.531-1.047.75-.25-.656-.781-.75-1.078-.75-1.031 0-1.61 1.281-1.61 1.531 0 .11.11.11.126.11.078 0 .11-.032.125-.11.344-1.063 1-1.313 1.344-1.313.187 0 .53.094.53.672 0 .313-.171.97-.53 2.375-.157.61-.516 1.032-.954 1.032-.062 0-.28 0-.5-.125.25-.063.47-.266.47-.547 0-.266-.22-.344-.36-.344-.313 0-.547.25-.547.578 0 .453.484.656.922.656.672 0 1.031-.703 1.047-.75.125.36.484.75 1.078.75 1.031 0 1.594-1.28 1.594-1.53 0-.11-.079-.11-.11-.11-.094 0-.11.047-.14.11-.329 1.077-1 1.312-1.313 1.312-.39 0-.547-.313-.547-.657 0-.218.047-.437.156-.875zm0 0"/></symbol><symbol overflow="visible" id="H"><path style="stroke:none" d="M2.031-.016c0-.656-.25-1.046-.64-1.046a.517.517 0 0 0-.532.53c0 .266.204.532.532.532a.58.58 0 0 0 .343-.125c.032-.031.047-.031.047-.031.016 0 .016 0 .016.14 0 .75-.344 1.344-.672 1.672-.11.11-.11.125-.11.157 0 .078.048.109.094.109.11 0 .922-.766.922-1.938zm0 0"/></symbol><symbol overflow="visible" id="I"><path style="stroke:none" d="M1.906-.531a.534.534 0 0 0-.515-.531.537.537 0 0 0-.532.53.524.524 0 1 0 1.047 0Zm0 0"/></symbol><symbol overflow="visible" id="J"><path style="stroke:none" d="M1.86-2.297c.296 0 1.03-.031 1.53-.234.704-.297.75-.89.75-1.031 0-.438-.374-.844-1.062-.844-1.11 0-2.625.968-2.625 2.718C.453-.671 1.047.11 2.031.11c1.422 0 2.25-1.062 2.25-1.171 0-.063-.047-.141-.11-.141-.062 0-.077.031-.14.11-.781.984-1.875.984-1.984.984-.781 0-.875-.844-.875-1.157 0-.125.016-.421.156-1.03zm-.47-.219c.391-1.515 1.423-1.671 1.688-1.671.453 0 .735.296.735.625 0 1.046-1.594 1.046-2.016 1.046zm0 0"/></symbol><symbol overflow="visible" id="W"><path style="stroke:none" d="M5.14-6.813s0-.109-.124-.109c-.157 0-1.094.094-1.266.11-.078.015-.14.062-.14.187s.093.125.234.125c.484 0 .5.063.5.172l-.032.203-.593 2.36c-.188-.376-.469-.641-.922-.641-1.156 0-2.39 1.468-2.39 2.922C.406-.547.952.109 1.718.109c.203 0 .703-.046 1.297-.75a.91.91 0 0 0 .906.75c.36 0 .578-.234.75-.546a6.49 6.49 0 0 0 .297-.985c0-.11-.094-.11-.125-.11-.094 0-.11.048-.14.188-.173.64-.345 1.235-.75 1.235-.282 0-.298-.266-.298-.454 0-.25.016-.312.047-.484zM3.079-1.188c-.062.188-.062.204-.203.375-.438.547-.844.704-1.125.704-.5 0-.64-.547-.64-.938 0-.5.312-1.719.546-2.187.313-.579.75-.954 1.157-.954.64 0 .78.813.78.875a.562.562 0 0 1-.03.172zm0 0"/></symbol><symbol overflow="visible" id="ac"><path style="stroke:none" d="M6.031-3.703c0-.453-.172-.703-.406-.703-.25 0-.516.234-.516.468 0 .094.047.204.141.297.172.157.36.422.36.844 0 .39-.204.969-.5 1.422-.298.422-.673.766-1.141.766-.563 0-.875-.36-.969-.891.11-.266.344-.906.344-1.188 0-.109-.047-.218-.188-.218-.078 0-.187.031-.265.172-.11.203-.235.843-.235 1.203-.328.468-.719.922-1.344.922-.671 0-.875-.594-.875-1.141 0-1.25 1.016-2.297 1.016-2.422a.18.18 0 0 0-.187-.187c-.125 0-.204.125-.266.218-.5.735-.875 1.922-.875 2.829C.125-.625.344.109 1.172.109c.703 0 1.172-.5 1.531-1.046.094.578.485 1.046 1.094 1.046.781 0 1.25-.609 1.61-1.359.25-.484.624-1.844.624-2.453zm0 0"/></symbol><symbol overflow="visible" id="ad"><path style="stroke:none" d="M2.625-4.36C1.391-4.061.422-2.765.422-1.561.422-.595 1.062.125 2 .125c1.156 0 1.984-1.578 1.984-2.953 0-.906-.39-1.406-.734-1.844-.36-.453-.953-1.203-.953-1.64 0-.22.203-.454.547-.454.312 0 .5.125.719.266.203.125.39.25.546.25.25 0 .391-.234.391-.406 0-.219-.156-.235-.516-.328-.515-.11-.656-.11-.812-.11-.781 0-1.14.438-1.14 1.032 0 .546.296 1.093.593 1.703zm.125.22c.25.468.547 1 .547 1.718 0 .656-.375 2.328-1.297 2.328-.547 0-.969-.422-.969-1.187 0-.625.375-2.5 1.719-2.86zm0 0"/></symbol><symbol overflow="visible" id="ai"><path style="stroke:none" d="M5.734-5.672c0-.75-.546-1.36-1.359-1.36-.578 0-.86.157-1.203.407C2.625-6.219 2.078-5.25 1.89-4.5L.297 1.828c0 .047.047.11.125.11s.11-.032.11-.047l.702-2.766c.188.61.625.969 1.36.969.719 0 1.469-.344 1.922-.781a2.486 2.486 0 0 0 .796-1.829c0-.718-.375-1.25-.734-1.484.578-.344 1.156-.953 1.156-1.672zM3.938-4.016c-.126.047-.235.063-.485.063-.14 0-.328.015-.437-.031.03-.11.39-.079.5-.079.203 0 .296 0 .421.047zm1.234-1.89c0 .703-.375 1.422-.89 1.734-.282-.11-.47-.125-.766-.125-.22 0-.782-.016-.782.313 0 .28.516.25.688.25.375 0 .531 0 .828-.125.375.359.422.671.438 1.125.015.578-.22 1.328-.5 1.718-.391.532-1.063.891-1.625.891-.766 0-1.141-.578-1.141-1.281 0-.094 0-.25.047-.438l.64-2.515c.22-.86.938-2.454 2.141-2.454.578 0 .922.313.922.907zm0 0"/></symbol><symbol overflow="visible" id="ak"><path style="stroke:none" d="M4.75-2.36c0-1.562-.922-2.046-1.656-2.046-1.375 0-2.688 1.422-2.688 2.828C.406-.641 1 .109 2.031.109c.625 0 1.344-.234 2.094-.843.125.53.453.843.906.843.532 0 .844-.546.844-.703 0-.078-.063-.11-.125-.11-.063 0-.094.032-.125.11-.188.485-.547.485-.563.485-.312 0-.312-.782-.312-1.016 0-.203 0-.234.11-.344C5.796-2.656 6-3.812 6-3.812c0-.032-.016-.11-.125-.11-.094 0-.094.031-.14.219-.188.625-.516 1.375-.985 1.969zM4.094-.983c-.89.765-1.657.875-2.047.875-.594 0-.906-.454-.906-1.094 0-.484.265-1.563.578-2.063.468-.734 1.015-.921 1.36-.921.983 0 .983 1.312.983 2.078 0 .375 0 .953.032 1.125zm0 0"/></symbol><symbol overflow="visible" id="s"><path style="stroke:none" d="M1.844-4.625c0-.016.031-.11.031-.11 0-.046-.031-.109-.125-.109-.14 0-.719.063-.89.078-.047 0-.157.016-.157.157 0 .093.11.093.188.093.328 0 .328.063.328.11s-.063.328-.11.484l-.156.64C.891-3.031.516-1.515.5-1.421c-.047.172-.047.266-.047.344 0 .703.453 1.14 1.031 1.14.875 0 1.797-.937 1.797-1.968 0-.813-.562-1.172-1.047-1.172-.359 0-.671.203-.875.39zm-.36 4.5c-.328 0-.53-.297-.53-.719 0-.25.062-.484.265-1.281.031-.125.031-.14.172-.297.265-.297.578-.453.828-.453.265 0 .5.203.5.672 0 .281-.14 1-.36 1.406-.171.344-.515.672-.875.672Zm0 0"/></symbol><symbol overflow="visible" id="x"><path style="stroke:none" d="M2.266-4.36a.276.276 0 0 0-.282-.265c-.187 0-.39.188-.39.39 0 .11.078.266.281.266.188 0 .39-.203.39-.39zM.844-.811C.813-.72.78-.641.78-.516c0 .329.266.579.656.579.688 0 1-.954 1-1.063 0-.094-.093-.094-.109-.094-.094 0-.11.047-.14.125-.157.563-.454.844-.735.844-.14 0-.172-.094-.172-.25s.047-.281.11-.438c.078-.187.156-.375.218-.562.063-.172.329-.797.344-.89A.5.5 0 0 0 2-2.486c0-.328-.281-.593-.656-.593C.64-3.078.328-2.125.328-2c0 .078.094.078.125.078.094 0 .094-.031.125-.11.172-.593.485-.843.735-.843.109 0 .171.047.171.234 0 .172-.03.266-.203.704zm0 0"/></symbol><symbol overflow="visible" id="A"><path style="stroke:none" d="M1.578-.39a.4.4 0 0 0-.39-.407.4.4 0 0 0-.407.39.4.4 0 0 0 .39.407.4.4 0 0 0 .407-.39zm0 0"/></symbol><symbol overflow="visible" id="C"><path style="stroke:none" d="M3.063-4.36a.276.276 0 0 0-.282-.265c-.203 0-.39.203-.39.39 0 .11.078.266.28.266.188 0 .392-.187.392-.39zM1.577.345c-.11.484-.484.875-.89.875-.094 0-.172 0-.25-.032A.424.424 0 0 0 .671.829c0-.172-.14-.25-.281-.25C.187.578 0 .766 0 .984c0 .266.266.438.688.438.421 0 1.234-.25 1.453-1.094l.625-2.5c.015-.078.03-.14.03-.25 0-.375-.327-.656-.733-.656C1.28-3.078.843-2.11.843-2c0 .078.095.078.11.078.078 0 .094-.016.14-.125.173-.406.532-.828.938-.828.172 0 .235.11.235.344 0 .078 0 .172-.016.203zm0 0"/></symbol><symbol overflow="visible" id="Q"><path style="stroke:none" d="M2.938-2.656c-.141-.235-.376-.422-.72-.422-.89 0-1.796.984-1.796 1.984C.422-.406.875.063 1.484.063c.375 0 .704-.204.985-.485.125.422.531.484.719.484.25 0 .421-.14.546-.359.157-.281.25-.672.25-.703 0-.094-.093-.094-.109-.094-.11 0-.11.032-.156.219-.094.344-.219.75-.516.75-.172 0-.234-.156-.234-.344 0-.11.062-.375.11-.547.046-.187.124-.468.155-.625l.141-.53c.047-.188.125-.517.125-.548 0-.156-.125-.219-.234-.219-.125 0-.282.079-.329.282zM2.5-.875c-.047.203-.203.344-.36.469-.062.062-.343.281-.64.281-.266 0-.516-.188-.516-.672 0-.375.204-1.14.375-1.422.313-.562.672-.656.86-.656.484 0 .625.531.625.61 0 .015-.016.078-.016.093zm0 0"/></symbol><symbol overflow="visible" id="X"><path style="stroke:none" d="M1.734-.734c-.062.234-.296.609-.656.609-.016 0-.234 0-.375-.094a.437.437 0 0 0 .313-.39c0-.157-.125-.25-.282-.25a.407.407 0 0 0-.406.421c0 .344.39.5.734.5.329 0 .61-.187.782-.484.172.36.547.484.828.484.812 0 1.234-.859 1.234-1.062 0-.094-.094-.094-.11-.094-.108 0-.108.047-.14.125-.14.485-.562.844-.953.844-.281 0-.422-.188-.422-.453 0-.188.172-.813.36-1.594.14-.531.453-.703.687-.703.016 0 .219 0 .375.094a.431.431 0 0 0-.312.39c0 .141.125.25.28.25.157 0 .392-.125.392-.421 0-.391-.454-.516-.72-.516-.359 0-.64.234-.78.5-.126-.281-.454-.5-.844-.5C.937-3.078.5-2.218.5-2c0 .078.094.078.11.078.093 0 .093-.016.14-.11.172-.546.61-.843.953-.843.234 0 .422.125.422.453 0 .14-.094.485-.156.735Zm0 0"/></symbol><symbol overflow="visible" id="y"><path style="stroke:none" d="M1.984-3.172c0-.14-.015-.14-.187-.14C1.453-3 .89-3 .797-3H.719v.219h.078c.11 0 .437-.016.734-.14v2.5c0 .14 0 .202-.531.202H.75V0c.266-.016.719-.016 1-.016.297 0 .734 0 1.016.016v-.219h-.25c-.532 0-.532-.062-.532-.203zm0 0"/></symbol><symbol overflow="visible" id="z"><path style="stroke:none" d="M2.938-.969h-.22c0 .094-.062.406-.14.453-.031.032-.453.032-.531.032h-.969c.328-.235.688-.516.984-.72.454-.312.876-.593.876-1.124 0-.64-.61-.985-1.313-.985-.672 0-1.172.376-1.172.876 0 .25.219.296.297.296a.283.283 0 0 0 .281-.296.27.27 0 0 0-.281-.282c.14-.234.438-.375.766-.375.484 0 .89.281.89.766 0 .422-.297.75-.672 1.062L.516-.234c-.047.047-.063.047-.063.078V0h2.313zm0 0"/></symbol><symbol overflow="visible" id="B"><path style="stroke:none" d="M.703.578C.656.718.656.75.438.75.358.75.28.75.28.875c0 .063.031.094.078.094.063 0 .157-.016.235-.016H1.14c.078 0 .187.016.28.016.063 0 .126-.031.126-.14C1.547.75 1.453.75 1.39.75c-.172 0-.282 0-.282-.063 0-.03.079-.343.235-.937a.729.729 0 0 0 .593.313c.704 0 1.407-.704 1.407-1.391 0-.5-.375-.875-.875-.875-.39 0-.688.25-.797.344-.094-.266-.39-.344-.578-.344-.172 0-.328.078-.453.281a1.665 1.665 0 0 0-.188.484c0 .079.078.079.11.079.078 0 .093-.032.109-.11.062-.203.156-.562.39-.562.172 0 .204.156.204.265 0 .063 0 .079-.016.125zm.953-2.062c.016-.079.016-.094.11-.188.187-.219.453-.36.687-.36.203 0 .438.126.438.5 0 .22-.11.704-.25.938-.22.375-.516.485-.704.485-.406 0-.515-.407-.515-.454 0-.015.016-.046.016-.078zm0 0"/></symbol><symbol overflow="visible" id="D"><path style="stroke:none" d="M2.984-2.016C3-2.078 3-2.094 3-2.125c0-.063-.063-.078-.078-.078-.063 0-.297.203-.375.328a.719.719 0 0 0-.625-.328c-.688 0-1.39.672-1.39 1.39 0 .516.374.875.859.875.312 0 .562-.156.703-.28-.078.374-.203.827-.203.843-.032.078-.047.11-.36.125-.093 0-.172 0-.172.125 0 .031.016.094.094.094s.188-.016.281-.016H2.312c.094 0 .204.016.297.016.079 0 .125-.031.125-.14 0-.079-.078-.079-.14-.079-.172 0-.281 0-.281-.063 0-.015 0-.03.03-.109zm-.78 1.36c-.017.078-.017.094-.11.187-.219.235-.485.36-.672.36-.172 0-.438-.094-.438-.516 0-.203.094-.672.25-.953.157-.266.438-.453.688-.453.422 0 .516.406.516.437 0 .032 0 .063-.016.078zm0 0"/></symbol><symbol overflow="visible" id="O"><path style="stroke:none" d="M2.719 8.766c-.14 1.64-.5 2.093-1.063 2.093-.125 0-.437-.03-.64-.218a.397.397 0 0 0 .375-.407.406.406 0 0 0-.407-.421.414.414 0 0 0-.421.437c0 .469.5.828 1.093.828.953 0 1.422-.875 1.64-1.765.126-.516.485-3.422.579-4.532l.188-2.484C4.202.469 4.53.219 4.984.219c.094 0 .407.015.625.203a.418.418 0 0 0-.359.422c0 .281.219.406.406.406.203 0 .422-.125.422-.422 0-.484-.5-.828-1.11-.828-.937 0-1.327.969-1.5 1.719-.124.547-.484 3.36-.562 4.578zm0 0"/></symbol><symbol overflow="visible" id="T"><path style="stroke:none" d="M1.031 21.703c.328-.016.5-.234.5-.484a.48.48 0 0 0-.484-.5.47.47 0 0 0-.484.5c0 .515.5.937 1.109.937 1.516 0 2.078-2.343 2.781-5.234A130.35 130.35 0 0 0 6.406 7.39C6.781 5.28 7.141 3.28 7.484 2c.125-.5.454-1.781.844-1.781a.98.98 0 0 1 .61.234c-.329.016-.5.234-.5.484 0 .329.25.485.468.485.25 0 .5-.14.5-.5C9.406.39 8.86 0 8.312 0 7.563 0 7 1.094 6.454 3.125c-.031.11-1.39 5.11-2.484 11.625-.266 1.531-.547 3.188-.875 4.578-.188.735-.64 2.61-1.453 2.61-.36 0-.594-.235-.61-.235zm0 0"/></symbol><symbol overflow="visible" id="U"><path style="stroke:none" d="M2.328-4.438c0-.187 0-.187-.203-.187-.453.438-1.078.438-1.36.438v.25c.157 0 .626 0 1-.188v3.547c0 .234 0 .328-.687.328H.812V0c.125 0 .985-.031 1.235-.031.219 0 1.094.031 1.25.031v-.25H3.03c-.703 0-.703-.094-.703-.328zm0 0"/></symbol><symbol overflow="visible" id="V"><path style="stroke:none" d="M3.594-2.219c0-.765-.094-1.328-.406-1.812-.22-.313-.657-.594-1.204-.594C.36-4.625.36-2.719.36-2.219c0 .5 0 2.36 1.625 2.36 1.61 0 1.61-1.86 1.61-2.36zM1.984-.063c-.328 0-.75-.187-.89-.75C1-1.219 1-1.796 1-2.313c0-.515 0-1.046.094-1.421.156-.547.593-.704.89-.704.375 0 .735.235.86.641.11.375.125.875.125 1.485 0 .515 0 1.03-.094 1.468-.14.64-.61.781-.89.781zm0 0"/></symbol><symbol overflow="visible" id="Y"><path style="stroke:none" d="M6.563-2.297c.171 0 .359 0 .359-.203 0-.188-.188-.188-.36-.188h-5.39c-.172 0-.344 0-.344.188 0 .203.172.203.344.203zm0 0"/></symbol></defs><g transform="matrix(.35278 0 0 .35278 -47.306 -45.062)" style="fill:#000;fill-opacity:1"><use y="134.765" x="148.712" xlink:href="#a" width="100%" height="100%"/><use y="134.765" x="154.247" xlink:href="#b" width="100%" height="100%"/><use y="134.765" x="159.782" xlink:href="#c" width="100%" height="100%"/><use y="134.765" x="165.318" xlink:href="#d" width="100%" height="100%"/><use y="134.765" x="169.247" xlink:href="#e" width="100%" height="100%"/><use y="134.765" x="173.674" xlink:href="#f" width="100%" height="100%"/><use y="134.765" x="177.577" xlink:href="#g" width="100%" height="100%"/><use y="134.765" x="180.344" xlink:href="#h" width="100%" height="100%"/><use y="134.765" x="185.879" xlink:href="#i" width="100%" height="100%"/><use y="134.765" x="189.754" xlink:href="#d" width="100%" height="100%"/></g><g transform="matrix(.35278 0 0 .35278 -47.306 -45.062)" style="fill:#000;fill-opacity:1"><use y="134.765" x="197.379" xlink:href="#g" width="100%" height="100%"/><use y="134.765" x="200.147" xlink:href="#j" width="100%" height="100%"/></g><g transform="matrix(.35278 0 0 .35278 -47.306 -45.062)" style="fill:#000;fill-opacity:1"><use y="134.765" x="209.388" xlink:href="#k" width="100%" height="100%"/><use y="134.765" x="217.69" xlink:href="#l" width="100%" height="100%"/><use y="134.765" x="222.671" xlink:href="#i" width="100%" height="100%"/><use y="134.765" x="226.546" xlink:href="#m" width="100%" height="100%"/></g><g transform="matrix(.35278 0 0 .35278 -47.306 -45.062)" style="fill:#000;fill-opacity:1"><use y="134.765" x="235.777" xlink:href="#k" width="100%" height="100%"/><use y="134.765" x="244.079" xlink:href="#n" width="100%" height="100%"/></g><g transform="matrix(.35278 0 0 .35278 -47.306 -45.062)" style="fill:#000;fill-opacity:1"><use y="134.765" x="249.339" xlink:href="#o" width="100%" height="100%"/><use y="134.765" x="254.874" xlink:href="#p" width="100%" height="100%"/></g><g transform="matrix(.35278 0 0 .35278 -47.306 -45.062)" style="fill:#000;fill-opacity:1"><use y="134.765" x="262.998" xlink:href="#l" width="100%" height="100%"/><use y="134.765" x="267.979" xlink:href="#f" width="100%" height="100%"/><use y="134.765" x="271.882" xlink:href="#p" width="100%" height="100%"/></g><g transform="matrix(.35278 0 0 .35278 -47.306 -45.062)" style="fill:#000;fill-opacity:1"><use y="134.765" x="280.005" xlink:href="#q" width="100%" height="100%"/><use y="134.765" x="287.2" xlink:href="#f" width="100%" height="100%"/><use y="134.765" x="291.102" xlink:href="#g" width="100%" height="100%"/><use y="134.765" x="293.87" xlink:href="#i" width="100%" height="100%"/><use y="134.765" x="297.745" xlink:href="#i" width="100%" height="100%"/><use y="134.765" x="301.619" xlink:href="#p" width="100%" height="100%"/><use y="134.765" x="306.046" xlink:href="#j" width="100%" height="100%"/></g><g transform="matrix(.35278 0 0 .35278 -47.306 -45.062)" style="fill:#000;fill-opacity:1"><use y="134.765" x="315.288" xlink:href="#l" width="100%" height="100%"/><use y="134.765" x="320.269" xlink:href="#d" width="100%" height="100%"/></g><use y="134.765" x="327.894" xlink:href="#r" width="100%" height="100%" transform="matrix(.35278 0 0 .35278 -47.306 -45.062)" style="fill:#000;fill-opacity:1"/><use y="136.259" x="333.16" xlink:href="#s" width="100%" height="100%" transform="matrix(.35278 0 0 .35278 -47.306 -45.062)" style="fill:#000;fill-opacity:1"/><g transform="matrix(.35278 0 0 .35278 -47.306 -45.062)" style="fill:#000;fill-opacity:1"><use y="134.765" x="340.861" xlink:href="#l" width="100%" height="100%"/><use y="134.765" x="345.842" xlink:href="#j" width="100%" height="100%"/><use y="134.765" x="351.378" xlink:href="#o" width="100%" height="100%"/></g><g transform="matrix(.35278 0 0 .35278 -47.306 -45.062)" style="fill:#000;fill-opacity:1"><use y="134.765" x="360.609" xlink:href="#d" width="100%" height="100%"/><use y="134.765" x="364.538" xlink:href="#b" width="100%" height="100%"/><use y="134.765" x="370.073" xlink:href="#h" width="100%" height="100%"/></g><g transform="matrix(.35278 0 0 .35278 -47.306 -45.062)" style="fill:#000;fill-opacity:1"><use y="134.765" x="375.888" xlink:href="#p" width="100%" height="100%"/><use y="134.765" x="380.315" xlink:href="#f" width="100%" height="100%"/><use y="134.765" x="384.217" xlink:href="#d" width="100%" height="100%"/><use y="134.765" x="388.146" xlink:href="#e" width="100%" height="100%"/><use y="134.765" x="392.574" xlink:href="#f" width="100%" height="100%"/><use y="134.765" x="396.476" xlink:href="#g" width="100%" height="100%"/><use y="134.765" x="399.244" xlink:href="#h" width="100%" height="100%"/><use y="134.765" x="404.779" xlink:href="#i" width="100%" height="100%"/><use y="134.765" x="408.654" xlink:href="#d" width="100%" height="100%"/></g><g transform="matrix(.35278 0 0 .35278 -47.306 -45.062)" style="fill:#000;fill-opacity:1"><use y="134.765" x="416.279" xlink:href="#l" width="100%" height="100%"/><use y="134.765" x="421.26" xlink:href="#f" width="100%" height="100%"/><use y="134.765" x="425.163" xlink:href="#p" width="100%" height="100%"/></g><g transform="matrix(.35278 0 0 .35278 -47.306 -45.062)" style="fill:#000;fill-opacity:1"><use y="134.765" x="433.296" xlink:href="#q" width="100%" height="100%"/><use y="134.765" x="440.491" xlink:href="#f" width="100%" height="100%"/><use y="134.765" x="444.393" xlink:href="#g" width="100%" height="100%"/><use y="134.765" x="447.161" xlink:href="#i" width="100%" height="100%"/><use y="134.765" x="451.035" xlink:href="#i" width="100%" height="100%"/><use y="134.765" x="454.91" xlink:href="#p" width="100%" height="100%"/><use y="134.765" x="459.337" xlink:href="#j" width="100%" height="100%"/></g><g transform="matrix(.35278 0 0 .35278 -47.306 -45.062)" style="fill:#000;fill-opacity:1"><use y="134.765" x="468.569" xlink:href="#l" width="100%" height="100%"/><use y="134.765" x="473.55" xlink:href="#d" width="100%" height="100%"/></g><use y="146.72" x="133.768" xlink:href="#r" width="100%" height="100%" transform="matrix(.35278 0 0 .35278 -47.306 -45.062)" style="fill:#000;fill-opacity:1"/><use y="143.105" x="139.034" xlink:href="#s" width="100%" height="100%" transform="matrix(.35278 0 0 .35278 -47.306 -45.062)" style="fill:#000;fill-opacity:1"/><use y="146.72" x="143.036" xlink:href="#t" width="100%" height="100%" transform="matrix(.35278 0 0 .35278 -47.306 -45.062)" style="fill:#000;fill-opacity:1"/><g transform="matrix(.35278 0 0 .35278 -47.306 -45.062)" style="fill:#000;fill-opacity:1"><use y="146.72" x="150.227" xlink:href="#u" width="100%" height="100%"/><use y="146.72" x="157.422" xlink:href="#m" width="100%" height="100%"/><use y="146.72" x="162.957" xlink:href="#p" width="100%" height="100%"/><use y="146.72" x="167.385" xlink:href="#d" width="100%" height="100%"/></g><use y="146.72" x="171.324" xlink:href="#p" width="100%" height="100%" transform="matrix(.35278 0 0 .35278 -47.306 -45.062)" style="fill:#000;fill-opacity:1"/><g transform="matrix(.35278 0 0 .35278 -47.306 -45.062)" style="fill:#000;fill-opacity:1"><use y="146.72" x="179.069" xlink:href="#e" width="100%" height="100%"/><use y="146.72" x="183.496" xlink:href="#l" width="100%" height="100%"/><use y="146.72" x="188.477" xlink:href="#j" width="100%" height="100%"/></g><use y="146.72" x="197.33" xlink:href="#c" width="100%" height="100%" transform="matrix(.35278 0 0 .35278 -47.306 -45.062)" style="fill:#000;fill-opacity:1"/><use y="146.72" x="203.144" xlink:href="#p" width="100%" height="100%" transform="matrix(.35278 0 0 .35278 -47.306 -45.062)" style="fill:#000;fill-opacity:1"/><g transform="matrix(.35278 0 0 .35278 -47.306 -45.062)" style="fill:#000;fill-opacity:1"><use y="146.72" x="210.889" xlink:href="#e" width="100%" height="100%"/><use y="146.72" x="215.317" xlink:href="#n" width="100%" height="100%"/><use y="146.72" x="220.298" xlink:href="#k" width="100%" height="100%"/></g><g transform="matrix(.35278 0 0 .35278 -47.306 -45.062)" style="fill:#000;fill-opacity:1"><use y="146.72" x="228.331" xlink:href="#c" width="100%" height="100%"/><use y="146.72" x="233.866" xlink:href="#g" width="100%" height="100%"/><use y="146.72" x="236.634" xlink:href="#j" width="100%" height="100%"/><use y="146.72" x="242.169" xlink:href="#p" width="100%" height="100%"/><use y="146.72" x="246.596" xlink:href="#o" width="100%" height="100%"/></g><g transform="matrix(.35278 0 0 .35278 -47.306 -45.062)" style="fill:#000;fill-opacity:1"><use y="146.72" x="255.449" xlink:href="#l" width="100%" height="100%"/><use y="146.72" x="260.43" xlink:href="#j" width="100%" height="100%"/><use y="146.72" x="265.966" xlink:href="#o" width="100%" height="100%"/></g><g transform="matrix(.35278 0 0 .35278 -47.306 -45.062)" style="fill:#000;fill-opacity:1"><use y="146.72" x="274.818" xlink:href="#j" width="100%" height="100%"/><use y="146.72" x="280.354" xlink:href="#p" width="100%" height="100%"/><use y="146.72" x="284.781" xlink:href="#d" width="100%" height="100%"/><use y="146.72" x="288.71" xlink:href="#i" width="100%" height="100%"/><use y="146.72" x="292.585" xlink:href="#p" width="100%" height="100%"/><use y="146.72" x="297.012" xlink:href="#o" width="100%" height="100%"/></g><g transform="matrix(.35278 0 0 .35278 -47.306 -45.062)" style="fill:#000;fill-opacity:1"><use y="146.72" x="305.875" xlink:href="#i" width="100%" height="100%"/><use y="146.72" x="309.749" xlink:href="#n" width="100%" height="100%"/></g><g transform="matrix(.35278 0 0 .35278 -47.306 -45.062)" style="fill:#000;fill-opacity:1"><use y="146.72" x="318.048" xlink:href="#q" width="100%" height="100%"/><use y="146.72" x="325.243" xlink:href="#f" width="100%" height="100%"/><use y="146.72" x="329.145" xlink:href="#g" width="100%" height="100%"/><use y="146.72" x="331.913" xlink:href="#i" width="100%" height="100%"/><use y="146.72" x="335.787" xlink:href="#p" width="100%" height="100%"/></g><g transform="matrix(.35278 0 0 .35278 -47.306 -45.062)" style="fill:#000;fill-opacity:1"><use y="146.72" x="343.532" xlink:href="#p" width="100%" height="100%"/><use y="146.72" x="347.96" xlink:href="#v" width="100%" height="100%"/><use y="146.72" x="353.218" xlink:href="#h" width="100%" height="100%"/><use y="146.72" x="358.753" xlink:href="#f" width="100%" height="100%"/><use y="146.72" x="362.656" xlink:href="#p" width="100%" height="100%"/><use y="146.72" x="367.083" xlink:href="#d" width="100%" height="100%"/><use y="146.72" x="371.012" xlink:href="#d" width="100%" height="100%"/><use y="146.72" x="374.941" xlink:href="#g" width="100%" height="100%"/><use y="146.72" x="377.709" xlink:href="#n" width="100%" height="100%"/><use y="146.72" x="382.69" xlink:href="#j" width="100%" height="100%"/><use y="146.72" x="388.226" xlink:href="#d" width="100%" height="100%"/></g><g transform="matrix(.35278 0 0 .35278 -47.306 -45.062)" style="fill:#000;fill-opacity:1"><use y="146.72" x="395.482" xlink:href="#d" width="100%" height="100%"/><use y="146.72" x="399.412" xlink:href="#b" width="100%" height="100%"/><use y="146.72" x="404.947" xlink:href="#e" width="100%" height="100%"/></g><use y="146.72" x="409.095" xlink:href="#m" width="100%" height="100%" transform="matrix(.35278 0 0 .35278 -47.306 -45.062)" style="fill:#000;fill-opacity:1"/><g transform="matrix(.35278 0 0 .35278 -47.306 -45.062)" style="fill:#000;fill-opacity:1"><use y="146.72" x="417.948" xlink:href="#l" width="100%" height="100%"/><use y="146.72" x="422.929" xlink:href="#d" width="100%" height="100%"/></g><use y="170.575" x="224.14" xlink:href="#w" width="100%" height="100%" transform="matrix(.35278 0 0 .35278 -47.306 -45.062)" style="fill:#000;fill-opacity:1"/><use y="165.179" x="231.345" xlink:href="#x" width="100%" height="100%" transform="matrix(.35278 0 0 .35278 -47.306 -45.062)" style="fill:#000;fill-opacity:1"/><use y="166.175" x="234.164" xlink:href="#y" width="100%" height="100%" transform="matrix(.35278 0 0 .35278 -47.306 -45.062)" style="fill:#000;fill-opacity:1"/><use y="165.179" x="238.052" xlink:href="#x" width="100%" height="100%" transform="matrix(.35278 0 0 .35278 -47.306 -45.062)" style="fill:#000;fill-opacity:1"/><use y="166.175" x="240.871" xlink:href="#z" width="100%" height="100%" transform="matrix(.35278 0 0 .35278 -47.306 -45.062)" style="fill:#000;fill-opacity:1"/><g transform="matrix(.35278 0 0 .35278 -47.306 -45.062)" style="fill:#000;fill-opacity:1"><use y="165.179" x="244.759" xlink:href="#A" width="100%" height="100%"/><use y="165.179" x="247.125" xlink:href="#A" width="100%" height="100%"/><use y="165.179" x="249.491" xlink:href="#A" width="100%" height="100%"/><use y="165.179" x="251.858" xlink:href="#x" width="100%" height="100%"/></g><use y="166.175" x="254.676" xlink:href="#B" width="100%" height="100%" transform="matrix(.35278 0 0 .35278 -47.306 -45.062)" style="fill:#000;fill-opacity:1"/><use y="173.352" x="229.961" xlink:href="#C" width="100%" height="100%" transform="matrix(.35278 0 0 .35278 -47.306 -45.062)" style="fill:#000;fill-opacity:1"/><use y="174.348" x="233.258" xlink:href="#y" width="100%" height="100%" transform="matrix(.35278 0 0 .35278 -47.306 -45.062)" style="fill:#000;fill-opacity:1"/><use y="173.352" x="237.146" xlink:href="#C" width="100%" height="100%" transform="matrix(.35278 0 0 .35278 -47.306 -45.062)" style="fill:#000;fill-opacity:1"/><use y="174.348" x="240.443" xlink:href="#z" width="100%" height="100%" transform="matrix(.35278 0 0 .35278 -47.306 -45.062)" style="fill:#000;fill-opacity:1"/><g transform="matrix(.35278 0 0 .35278 -47.306 -45.062)" style="fill:#000;fill-opacity:1"><use y="173.352" x="244.331" xlink:href="#A" width="100%" height="100%"/><use y="173.352" x="246.697" xlink:href="#A" width="100%" height="100%"/><use y="173.352" x="249.063" xlink:href="#A" width="100%" height="100%"/><use y="173.352" x="251.43" xlink:href="#C" width="100%" height="100%"/></g><use y="174.348" x="254.726" xlink:href="#D" width="100%" height="100%" transform="matrix(.35278 0 0 .35278 -47.306 -45.062)" style="fill:#000;fill-opacity:1"/><use y="170.575" x="262.124" xlink:href="#E" width="100%" height="100%" transform="matrix(.35278 0 0 .35278 -47.306 -45.062)" style="fill:#000;fill-opacity:1"/><use y="170.575" x="272.641" xlink:href="#w" width="100%" height="100%" transform="matrix(.35278 0 0 .35278 -47.306 -45.062)" style="fill:#000;fill-opacity:1"/><use y="170.575" x="279.846" xlink:href="#F" width="100%" height="100%" transform="matrix(.35278 0 0 .35278 -47.306 -45.062)" style="fill:#000;fill-opacity:1"/><use y="170.575" x="283.721" xlink:href="#G" width="100%" height="100%" transform="matrix(.35278 0 0 .35278 -47.306 -45.062)" style="fill:#000;fill-opacity:1"/><use y="166.462" x="289.414" xlink:href="#x" width="100%" height="100%" transform="matrix(.35278 0 0 .35278 -47.306 -45.062)" style="fill:#000;fill-opacity:1"/><use y="167.458" x="292.233" xlink:href="#y" width="100%" height="100%" transform="matrix(.35278 0 0 .35278 -47.306 -45.062)" style="fill:#000;fill-opacity:1"/><use y="170.575" x="296.62" xlink:href="#H" width="100%" height="100%" transform="matrix(.35278 0 0 .35278 -47.306 -45.062)" style="fill:#000;fill-opacity:1"/><use y="170.575" x="301.051" xlink:href="#I" width="100%" height="100%" transform="matrix(.35278 0 0 .35278 -47.306 -45.062)" style="fill:#000;fill-opacity:1"/><use y="170.575" x="305.473" xlink:href="#I" width="100%" height="100%" transform="matrix(.35278 0 0 .35278 -47.306 -45.062)" style="fill:#000;fill-opacity:1"/><use y="170.575" x="309.904" xlink:href="#I" width="100%" height="100%" transform="matrix(.35278 0 0 .35278 -47.306 -45.062)" style="fill:#000;fill-opacity:1"/><use y="170.575" x="314.336" xlink:href="#H" width="100%" height="100%" transform="matrix(.35278 0 0 .35278 -47.306 -45.062)" style="fill:#000;fill-opacity:1"/><use y="170.575" x="318.757" xlink:href="#G" width="100%" height="100%" transform="matrix(.35278 0 0 .35278 -47.306 -45.062)" style="fill:#000;fill-opacity:1"/><use y="166.462" x="324.453" xlink:href="#x" width="100%" height="100%" transform="matrix(.35278 0 0 .35278 -47.306 -45.062)" style="fill:#000;fill-opacity:1"/><use y="167.458" x="327.271" xlink:href="#B" width="100%" height="100%" transform="matrix(.35278 0 0 .35278 -47.306 -45.062)" style="fill:#000;fill-opacity:1"/><use y="170.575" x="331.952" xlink:href="#H" width="100%" height="100%" transform="matrix(.35278 0 0 .35278 -47.306 -45.062)" style="fill:#000;fill-opacity:1"/><use y="170.575" x="336.383" xlink:href="#J" width="100%" height="100%" transform="matrix(.35278 0 0 .35278 -47.306 -45.062)" style="fill:#000;fill-opacity:1"/><use y="172.069" x="341.019" xlink:href="#C" width="100%" height="100%" transform="matrix(.35278 0 0 .35278 -47.306 -45.062)" style="fill:#000;fill-opacity:1"/><use y="173.066" x="344.316" xlink:href="#y" width="100%" height="100%" transform="matrix(.35278 0 0 .35278 -47.306 -45.062)" style="fill:#000;fill-opacity:1"/><use y="170.575" x="348.702" xlink:href="#H" width="100%" height="100%" transform="matrix(.35278 0 0 .35278 -47.306 -45.062)" style="fill:#000;fill-opacity:1"/><use y="170.575" x="353.133" xlink:href="#I" width="100%" height="100%" transform="matrix(.35278 0 0 .35278 -47.306 -45.062)" style="fill:#000;fill-opacity:1"/><use y="170.575" x="357.555" xlink:href="#I" width="100%" height="100%" transform="matrix(.35278 0 0 .35278 -47.306 -45.062)" style="fill:#000;fill-opacity:1"/><use y="170.575" x="361.986" xlink:href="#I" width="100%" height="100%" transform="matrix(.35278 0 0 .35278 -47.306 -45.062)" style="fill:#000;fill-opacity:1"/><use y="170.575" x="366.417" xlink:href="#H" width="100%" height="100%" transform="matrix(.35278 0 0 .35278 -47.306 -45.062)" style="fill:#000;fill-opacity:1"/><use y="170.575" x="370.839" xlink:href="#J" width="100%" height="100%" transform="matrix(.35278 0 0 .35278 -47.306 -45.062)" style="fill:#000;fill-opacity:1"/><use y="172.069" x="375.48" xlink:href="#C" width="100%" height="100%" transform="matrix(.35278 0 0 .35278 -47.306 -45.062)" style="fill:#000;fill-opacity:1"/><use y="173.066" x="378.777" xlink:href="#D" width="100%" height="100%" transform="matrix(.35278 0 0 .35278 -47.306 -45.062)" style="fill:#000;fill-opacity:1"/><use y="170.575" x="383.234" xlink:href="#K" width="100%" height="100%" transform="matrix(.35278 0 0 .35278 -47.306 -45.062)" style="fill:#000;fill-opacity:1"/><use y="194.301" x="148.712" xlink:href="#L" width="100%" height="100%" transform="matrix(.35278 0 0 .35278 -47.306 -45.062)" style="fill:#000;fill-opacity:1"/><use y="194.301" x="158.125" xlink:href="#p" width="100%" height="100%" transform="matrix(.35278 0 0 .35278 -47.306 -45.062)" style="fill:#000;fill-opacity:1"/><g transform="matrix(.35278 0 0 .35278 -47.306 -45.062)" style="fill:#000;fill-opacity:1"><use y="194.301" x="167.334" xlink:href="#q" width="100%" height="100%"/><use y="194.301" x="174.529" xlink:href="#f" width="100%" height="100%"/><use y="194.301" x="178.431" xlink:href="#g" width="100%" height="100%"/><use y="194.301" x="181.199" xlink:href="#i" width="100%" height="100%"/><use y="194.301" x="185.073" xlink:href="#p" width="100%" height="100%"/></g><g transform="matrix(.35278 0 0 .35278 -47.306 -45.062)" style="fill:#000;fill-opacity:1"><use y="194.301" x="194.273" xlink:href="#g" width="100%" height="100%"/><use y="194.301" x="197.041" xlink:href="#j" width="100%" height="100%"/></g><g transform="matrix(.35278 0 0 .35278 -47.306 -45.062)" style="fill:#000;fill-opacity:1"><use y="194.301" x="202.307" xlink:href="#i" width="100%" height="100%"/><use y="194.301" x="206.181" xlink:href="#p" width="100%" height="100%"/><use y="194.301" x="210.609" xlink:href="#M" width="100%" height="100%"/><use y="194.301" x="215.59" xlink:href="#f" width="100%" height="100%"/><use y="194.301" x="219.492" xlink:href="#l" width="100%" height="100%"/><use y="194.301" x="224.474" xlink:href="#N" width="100%" height="100%"/><use y="194.301" x="227.241" xlink:href="#d" width="100%" height="100%"/></g><g transform="matrix(.35278 0 0 .35278 -47.306 -45.062)" style="fill:#000;fill-opacity:1"><use y="194.301" x="235.943" xlink:href="#b" width="100%" height="100%"/><use y="194.301" x="241.478" xlink:href="#d" width="100%" height="100%"/><use y="194.301" x="245.407" xlink:href="#g" width="100%" height="100%"/><use y="194.301" x="248.175" xlink:href="#j" width="100%" height="100%"/><use y="194.301" x="253.71" xlink:href="#M" width="100%" height="100%"/></g><use y="186.276" x="263.476" xlink:href="#O" width="100%" height="100%" transform="matrix(.35278 0 0 .35278 -47.306 -45.062)" style="fill:#000;fill-opacity:1"/><g transform="matrix(.35278 0 0 .35278 -47.306 -45.062)" style="fill:#000;fill-opacity:1"><use y="194.301" x="274.898" xlink:href="#l" width="100%" height="100%"/><use y="194.301" x="279.879" xlink:href="#j" width="100%" height="100%"/><use y="194.301" x="285.415" xlink:href="#o" width="100%" height="100%"/></g><g transform="matrix(.35278 0 0 .35278 -47.306 -45.062)" style="fill:#000;fill-opacity:1"><use y="194.301" x="295.732" xlink:href="#P" width="100%" height="100%"/><use y="194.301" x="298.776" xlink:href="#f" width="100%" height="100%"/><use y="194.301" x="302.679" xlink:href="#l" width="100%" height="100%"/><use y="194.301" x="307.66" xlink:href="#e" width="100%" height="100%"/><use y="194.301" x="312.087" xlink:href="#i" width="100%" height="100%"/><use y="194.301" x="315.962" xlink:href="#g" width="100%" height="100%"/><use y="194.301" x="318.729" xlink:href="#n" width="100%" height="100%"/><use y="194.301" x="323.711" xlink:href="#j" width="100%" height="100%"/><use y="194.301" x="329.246" xlink:href="#d" width="100%" height="100%"/></g><g transform="matrix(.35278 0 0 .35278 -47.306 -45.062)" style="fill:#000;fill-opacity:1"><use y="194.301" x="337.957" xlink:href="#b" width="100%" height="100%"/><use y="194.301" x="343.492" xlink:href="#d" width="100%" height="100%"/><use y="194.301" x="347.422" xlink:href="#g" width="100%" height="100%"/><use y="194.301" x="350.189" xlink:href="#j" width="100%" height="100%"/><use y="194.301" x="355.725" xlink:href="#M" width="100%" height="100%"/></g><use y="190.379" x="366.677" xlink:href="#Q" width="100%" height="100%" transform="matrix(.35278 0 0 .35278 -47.306 -45.062)" style="fill:#000;fill-opacity:1"/><path d="M154.557 88.265h1.524" style="fill:none;stroke:#000;stroke-width:.140406;stroke-linecap:butt;stroke-linejoin:miter;stroke-miterlimit:10;stroke-opacity:1" transform="translate(-72.508 -65.66)"/><use y="197.737" x="367.086" xlink:href="#s" width="100%" height="100%" transform="matrix(.35278 0 0 .35278 -47.306 -45.062)" style="fill:#000;fill-opacity:1"/><use y="194.301" x="372.194" xlink:href="#t" width="100%" height="100%" transform="matrix(.35278 0 0 .35278 -47.306 -45.062)" style="fill:#000;fill-opacity:1"/><g transform="matrix(.35278 0 0 .35278 -47.306 -45.062)" style="fill:#000;fill-opacity:1"><use y="194.301" x="383.769" xlink:href="#R" width="100%" height="100%"/><use y="194.301" x="389.995" xlink:href="#g" width="100%" height="100%"/><use y="194.301" x="392.763" xlink:href="#k" width="100%" height="100%"/><use y="194.301" x="401.065" xlink:href="#g" width="100%" height="100%"/><use y="194.301" x="403.832" xlink:href="#i" width="100%" height="100%"/><use y="194.301" x="407.707" xlink:href="#d" width="100%" height="100%"/></g><g transform="matrix(.35278 0 0 .35278 -47.306 -45.062)" style="fill:#000;fill-opacity:1"><use y="194.301" x="416.418" xlink:href="#l" width="100%" height="100%"/><use y="194.301" x="421.399" xlink:href="#f" width="100%" height="100%"/><use y="194.301" x="425.302" xlink:href="#p" width="100%" height="100%"/></g><g transform="matrix(.35278 0 0 .35278 -47.306 -45.062)" style="fill:#000;fill-opacity:1"><use y="194.301" x="434.511" xlink:href="#h" width="100%" height="100%"/><use y="194.301" x="440.046" xlink:href="#N" width="100%" height="100%"/><use y="194.301" x="442.814" xlink:href="#l" width="100%" height="100%"/><use y="194.301" x="447.795" xlink:href="#e" width="100%" height="100%"/><use y="194.301" x="452.223" xlink:href="#p" width="100%" height="100%"/><use y="194.301" x="456.65" xlink:href="#o" width="100%" height="100%"/></g><g transform="matrix(.35278 0 0 .35278 -47.306 -45.062)" style="fill:#000;fill-opacity:1"><use y="194.301" x="466.967" xlink:href="#n" width="100%" height="100%"/><use y="194.301" x="471.949" xlink:href="#j" width="100%" height="100%"/></g><g transform="matrix(.35278 0 0 .35278 -47.306 -45.062)" style="fill:#000;fill-opacity:1"><use y="206.256" x="133.768" xlink:href="#g" width="100%" height="100%"/><use y="206.256" x="136.536" xlink:href="#j" width="100%" height="100%"/></g><g transform="matrix(.35278 0 0 .35278 -47.306 -45.062)" style="fill:#000;fill-opacity:1"><use y="206.256" x="141.792" xlink:href="#i" width="100%" height="100%"/><use y="206.256" x="145.666" xlink:href="#p" width="100%" height="100%"/><use y="206.256" x="150.094" xlink:href="#M" width="100%" height="100%"/><use y="206.256" x="155.075" xlink:href="#f" width="100%" height="100%"/><use y="206.256" x="158.977" xlink:href="#l" width="100%" height="100%"/><use y="206.256" x="163.959" xlink:href="#N" width="100%" height="100%"/><use y="206.256" x="166.726" xlink:href="#d" width="100%" height="100%"/></g><g transform="matrix(.35278 0 0 .35278 -47.306 -45.062)" style="fill:#000;fill-opacity:1"><use y="206.256" x="173.983" xlink:href="#b" width="100%" height="100%"/><use y="206.256" x="179.518" xlink:href="#d" width="100%" height="100%"/><use y="206.256" x="183.447" xlink:href="#g" width="100%" height="100%"/><use y="206.256" x="186.215" xlink:href="#j" width="100%" height="100%"/><use y="206.256" x="191.75" xlink:href="#M" width="100%" height="100%"/></g><g transform="matrix(.35278 0 0 .35278 -47.306 -45.062)" style="fill:#000;fill-opacity:1"><use y="206.256" x="200.049" xlink:href="#d" width="100%" height="100%"/><use y="206.256" x="203.978" xlink:href="#b" width="100%" height="100%"/><use y="206.256" x="209.514" xlink:href="#h" width="100%" height="100%"/></g><g transform="matrix(.35278 0 0 .35278 -47.306 -45.062)" style="fill:#000;fill-opacity:1"><use y="206.256" x="215.328" xlink:href="#p" width="100%" height="100%"/><use y="206.256" x="219.755" xlink:href="#f" width="100%" height="100%"/><use y="206.256" x="223.658" xlink:href="#d" width="100%" height="100%"/><use y="206.256" x="227.587" xlink:href="#e" width="100%" height="100%"/><use y="206.256" x="232.014" xlink:href="#f" width="100%" height="100%"/><use y="206.256" x="235.917" xlink:href="#g" width="100%" height="100%"/><use y="206.256" x="238.684" xlink:href="#h" width="100%" height="100%"/><use y="206.256" x="244.219" xlink:href="#i" width="100%" height="100%"/><use y="206.256" x="248.094" xlink:href="#d" width="100%" height="100%"/></g><g transform="matrix(.35278 0 0 .35278 -47.306 -45.062)" style="fill:#000;fill-opacity:1"><use y="206.256" x="255.341" xlink:href="#l" width="100%" height="100%"/><use y="206.256" x="260.322" xlink:href="#j" width="100%" height="100%"/><use y="206.256" x="265.857" xlink:href="#o" width="100%" height="100%"/></g><g transform="matrix(.35278 0 0 .35278 -47.306 -45.062)" style="fill:#000;fill-opacity:1"><use y="206.256" x="274.71" xlink:href="#d" width="100%" height="100%"/><use y="206.256" x="278.639" xlink:href="#b" width="100%" height="100%"/><use y="206.256" x="284.174" xlink:href="#c" width="100%" height="100%"/><use y="206.256" x="289.71" xlink:href="#d" width="100%" height="100%"/><use y="206.256" x="293.639" xlink:href="#e" width="100%" height="100%"/><use y="206.256" x="298.066" xlink:href="#f" width="100%" height="100%"/><use y="206.256" x="301.969" xlink:href="#g" width="100%" height="100%"/><use y="206.256" x="304.736" xlink:href="#h" width="100%" height="100%"/><use y="206.256" x="310.271" xlink:href="#i" width="100%" height="100%"/><use y="206.256" x="314.146" xlink:href="#d" width="100%" height="100%"/><use y="206.256" x="318.075" xlink:href="#S" width="100%" height="100%"/></g><use y="221.184" x="272.207" xlink:href="#T" width="100%" height="100%" transform="matrix(.35278 0 0 .35278 -47.306 -45.062)" style="fill:#000;fill-opacity:1"/><use y="223.647" x="282.17" xlink:href="#U" width="100%" height="100%" transform="matrix(.35278 0 0 .35278 -47.306 -45.062)" style="fill:#000;fill-opacity:1"/><use y="243.821" x="277.742" xlink:href="#V" width="100%" height="100%" transform="matrix(.35278 0 0 .35278 -47.306 -45.062)" style="fill:#000;fill-opacity:1"/><g transform="matrix(.35278 0 0 .35278 -47.306 -45.062)" style="fill:#000;fill-opacity:1"><use y="228.004" x="289.495" xlink:href="#W" width="100%" height="100%"/><use y="228.004" x="294.681" xlink:href="#G" width="100%" height="100%"/></g><path d="M127.33 102.532h3.838" style="fill:none;stroke:#000;stroke-width:.140406;stroke-linecap:butt;stroke-linejoin:miter;stroke-miterlimit:10;stroke-opacity:1" transform="translate(-72.508 -65.66)"/><use y="241.578" x="290.107" xlink:href="#J" width="100%" height="100%" transform="matrix(.35278 0 0 .35278 -47.306 -45.062)" style="fill:#000;fill-opacity:1"/><use y="238.7" x="294.746" xlink:href="#X" width="100%" height="100%" transform="matrix(.35278 0 0 .35278 -47.306 -45.062)" style="fill:#000;fill-opacity:1"/><use y="234.744" x="304.337" xlink:href="#E" width="100%" height="100%" transform="matrix(.35278 0 0 .35278 -47.306 -45.062)" style="fill:#000;fill-opacity:1"/><use y="228.004" x="316.049" xlink:href="#J" width="100%" height="100%" transform="matrix(.35278 0 0 .35278 -47.306 -45.062)" style="fill:#000;fill-opacity:1"/><use y="228.004" x="322.901" xlink:href="#Y" width="100%" height="100%" transform="matrix(.35278 0 0 .35278 -47.306 -45.062)" style="fill:#000;fill-opacity:1"/><use y="228.004" x="332.864" xlink:href="#Z" width="100%" height="100%" transform="matrix(.35278 0 0 .35278 -47.306 -45.062)" style="fill:#000;fill-opacity:1"/><path d="M136.698 102.532h7.69" style="fill:none;stroke:#000;stroke-width:.140406;stroke-linecap:butt;stroke-linejoin:miter;stroke-miterlimit:10;stroke-opacity:1" transform="translate(-72.508 -65.66)"/><use y="241.578" x="324.628" xlink:href="#J" width="100%" height="100%" transform="matrix(.35278 0 0 .35278 -47.306 -45.062)" style="fill:#000;fill-opacity:1"/><g transform="matrix(.35278 0 0 .35278 -47.306 -45.062)" style="fill:#000;fill-opacity:1"><use y="261.699" x="148.712" xlink:href="#R" width="100%" height="100%"/><use y="261.699" x="154.939" xlink:href="#n" width="100%" height="100%"/></g><use y="261.699" x="159.641" xlink:href="#q" width="100%" height="100%" transform="matrix(.35278 0 0 .35278 -47.306 -45.062)" style="fill:#000;fill-opacity:1"/><g transform="matrix(.35278 0 0 .35278 -47.306 -45.062)" style="fill:#000;fill-opacity:1"><use y="261.699" x="166.567" xlink:href="#p" width="100%" height="100%"/><use y="261.699" x="170.994" xlink:href="#f" width="100%" height="100%"/></g><g transform="matrix(.35278 0 0 .35278 -47.306 -45.062)" style="fill:#000;fill-opacity:1"><use y="261.699" x="179.24" xlink:href="#e" width="100%" height="100%"/><use y="261.699" x="183.668" xlink:href="#l" width="100%" height="100%"/><use y="261.699" x="188.649" xlink:href="#d" width="100%" height="100%"/><use y="261.699" x="192.578" xlink:href="#p" width="100%" height="100%"/></g><g transform="matrix(.35278 0 0 .35278 -47.306 -45.062)" style="fill:#000;fill-opacity:1"><use y="261.699" x="201.349" xlink:href="#aa" width="100%" height="100%"/><use y="261.699" x="209.167" xlink:href="#f" width="100%" height="100%"/><use y="261.699" x="213.069" xlink:href="#p" width="100%" height="100%"/><use y="261.699" x="217.497" xlink:href="#p" width="100%" height="100%"/><use y="261.699" x="221.924" xlink:href="#ab" width="100%" height="100%"/></g><g transform="matrix(.35278 0 0 .35278 -47.306 -45.062)" style="fill:#000;fill-opacity:1"><use y="261.699" x="231.526" xlink:href="#N" width="100%" height="100%"/><use y="261.699" x="234.294" xlink:href="#p" width="100%" height="100%"/><use y="261.699" x="238.721" xlink:href="#i" width="100%" height="100%"/><use y="261.699" x="242.596" xlink:href="#i" width="100%" height="100%"/><use y="261.699" x="246.47" xlink:href="#p" width="100%" height="100%"/><use y="261.699" x="250.897" xlink:href="#f" width="100%" height="100%"/><use y="261.699" x="254.8" xlink:href="#d" width="100%" height="100%"/></g><g transform="matrix(.35278 0 0 .35278 -47.306 -45.062)" style="fill:#000;fill-opacity:1"><use y="261.699" x="263.073" xlink:href="#l" width="100%" height="100%"/><use y="261.699" x="268.054" xlink:href="#f" width="100%" height="100%"/><use y="261.699" x="271.956" xlink:href="#p" width="100%" height="100%"/></g><g transform="matrix(.35278 0 0 .35278 -47.306 -45.062)" style="fill:#000;fill-opacity:1"><use y="261.699" x="280.727" xlink:href="#q" width="100%" height="100%"/><use y="261.699" x="287.922" xlink:href="#f" width="100%" height="100%"/><use y="261.699" x="291.825" xlink:href="#g" width="100%" height="100%"/><use y="261.699" x="294.592" xlink:href="#i" width="100%" height="100%"/><use y="261.699" x="298.467" xlink:href="#i" width="100%" height="100%"/><use y="261.699" x="302.341" xlink:href="#p" width="100%" height="100%"/><use y="261.699" x="306.769" xlink:href="#j" width="100%" height="100%"/></g><g transform="matrix(.35278 0 0 .35278 -47.306 -45.062)" style="fill:#000;fill-opacity:1"><use y="261.699" x="316.648" xlink:href="#l" width="100%" height="100%"/><use y="261.699" x="321.629" xlink:href="#d" width="100%" height="100%"/></g><use y="261.699" x="329.9" xlink:href="#ac" width="100%" height="100%" transform="matrix(.35278 0 0 .35278 -47.306 -45.062)" style="fill:#000;fill-opacity:1"/><use y="261.699" x="340.804" xlink:href="#ad" width="100%" height="100%" transform="matrix(.35278 0 0 .35278 -47.306 -45.062)" style="fill:#000;fill-opacity:1"/><g transform="matrix(.35278 0 0 .35278 -47.306 -45.062)" style="fill:#000;fill-opacity:1"><use y="261.699" x="349.951" xlink:href="#p" width="100%" height="100%"/><use y="261.699" x="354.378" xlink:href="#i" width="100%" height="100%"/><use y="261.699" x="358.253" xlink:href="#e" width="100%" height="100%"/><use y="261.699" x="362.68" xlink:href="#t" width="100%" height="100%"/></g><g transform="matrix(.35278 0 0 .35278 -47.306 -45.062)" style="fill:#000;fill-opacity:1"><use y="261.699" x="372.94" xlink:href="#q" width="100%" height="100%"/><use y="261.699" x="380.135" xlink:href="#m" width="100%" height="100%"/><use y="261.699" x="385.67" xlink:href="#g" width="100%" height="100%"/><use y="261.699" x="388.438" xlink:href="#N" width="100%" height="100%"/><use y="261.699" x="391.205" xlink:href="#p" width="100%" height="100%"/></g><g transform="matrix(.35278 0 0 .35278 -47.306 -45.062)" style="fill:#000;fill-opacity:1"><use y="261.699" x="399.976" xlink:href="#b" width="100%" height="100%"/><use y="261.699" x="405.511" xlink:href="#h" width="100%" height="100%"/><use y="261.699" x="411.047" xlink:href="#h" width="100%" height="100%"/></g><g transform="matrix(.35278 0 0 .35278 -47.306 -45.062)" style="fill:#000;fill-opacity:1"><use y="261.699" x="416.861" xlink:href="#p" width="100%" height="100%"/><use y="261.699" x="421.288" xlink:href="#f" width="100%" height="100%"/></g><g transform="matrix(.35278 0 0 .35278 -47.306 -45.062)" style="fill:#000;fill-opacity:1"><use y="261.699" x="429.534" xlink:href="#e" width="100%" height="100%"/><use y="261.699" x="433.962" xlink:href="#l" width="100%" height="100%"/><use y="261.699" x="438.943" xlink:href="#d" width="100%" height="100%"/><use y="261.699" x="442.872" xlink:href="#p" width="100%" height="100%"/></g><g transform="matrix(.35278 0 0 .35278 -47.306 -45.062)" style="fill:#000;fill-opacity:1"><use y="261.699" x="451.643" xlink:href="#aa" width="100%" height="100%"/><use y="261.699" x="459.461" xlink:href="#f" width="100%" height="100%"/><use y="261.699" x="463.363" xlink:href="#p" width="100%" height="100%"/><use y="261.699" x="467.791" xlink:href="#p" width="100%" height="100%"/><use y="261.699" x="472.218" xlink:href="#ab" width="100%" height="100%"/></g><g transform="matrix(.35278 0 0 .35278 -47.306 -45.062)" style="fill:#000;fill-opacity:1"><use y="273.654" x="133.768" xlink:href="#N" width="100%" height="100%"/><use y="273.654" x="136.536" xlink:href="#p" width="100%" height="100%"/><use y="273.654" x="140.963" xlink:href="#i" width="100%" height="100%"/><use y="273.654" x="144.837" xlink:href="#i" width="100%" height="100%"/><use y="273.654" x="148.712" xlink:href="#p" width="100%" height="100%"/><use y="273.654" x="153.139" xlink:href="#f" width="100%" height="100%"/><use y="273.654" x="157.042" xlink:href="#d" width="100%" height="100%"/></g><g transform="matrix(.35278 0 0 .35278 -47.306 -45.062)" style="fill:#000;fill-opacity:1"><use y="273.654" x="164.288" xlink:href="#l" width="100%" height="100%"/><use y="273.654" x="169.27" xlink:href="#f" width="100%" height="100%"/><use y="273.654" x="173.172" xlink:href="#p" width="100%" height="100%"/></g><g transform="matrix(.35278 0 0 .35278 -47.306 -45.062)" style="fill:#000;fill-opacity:1"><use y="273.654" x="180.927" xlink:href="#q" width="100%" height="100%"/><use y="273.654" x="188.122" xlink:href="#f" width="100%" height="100%"/><use y="273.654" x="192.024" xlink:href="#g" width="100%" height="100%"/><use y="273.654" x="194.792" xlink:href="#i" width="100%" height="100%"/><use y="273.654" x="198.666" xlink:href="#i" width="100%" height="100%"/><use y="273.654" x="202.541" xlink:href="#p" width="100%" height="100%"/><use y="273.654" x="206.968" xlink:href="#j" width="100%" height="100%"/></g><g transform="matrix(.35278 0 0 .35278 -47.306 -45.062)" style="fill:#000;fill-opacity:1"><use y="273.654" x="215.821" xlink:href="#l" width="100%" height="100%"/><use y="273.654" x="220.802" xlink:href="#d" width="100%" height="100%"/></g><use y="273.654" x="228.049" xlink:href="#ae" width="100%" height="100%" transform="matrix(.35278 0 0 .35278 -47.306 -45.062)" style="fill:#000;fill-opacity:1"/><g transform="matrix(.35278 0 0 .35278 -47.306 -45.062)" style="fill:#000;fill-opacity:1"><use y="273.654" x="238.572" xlink:href="#af" width="100%" height="100%"/><use y="273.654" x="246.873" xlink:href="#t" width="100%" height="100%"/></g><g transform="matrix(.35278 0 0 .35278 -47.306 -45.062)" style="fill:#000;fill-opacity:1"><use y="285.609" x="148.712" xlink:href="#ag" width="100%" height="100%"/><use y="285.609" x="157.845" xlink:href="#l" width="100%" height="100%"/><use y="285.609" x="162.826" xlink:href="#i" width="100%" height="100%"/><use y="285.609" x="166.7" xlink:href="#m" width="100%" height="100%"/><use y="285.609" x="172.236" xlink:href="#p" width="100%" height="100%"/><use y="285.609" x="176.663" xlink:href="#k" width="100%" height="100%"/><use y="285.609" x="184.965" xlink:href="#l" width="100%" height="100%"/><use y="285.609" x="189.946" xlink:href="#i" width="100%" height="100%"/><use y="285.609" x="193.821" xlink:href="#g" width="100%" height="100%"/><use y="285.609" x="196.588" xlink:href="#e" width="100%" height="100%"/><use y="285.609" x="201.016" xlink:href="#l" width="100%" height="100%"/><use y="285.609" x="205.997" xlink:href="#N" width="100%" height="100%"/></g><g transform="matrix(.35278 0 0 .35278 -47.306 -45.062)" style="fill:#000;fill-opacity:1"><use y="285.609" x="213.875" xlink:href="#n" width="100%" height="100%"/><use y="285.609" x="218.857" xlink:href="#h" width="100%" height="100%"/></g><g transform="matrix(.35278 0 0 .35278 -47.306 -45.062)" style="fill:#000;fill-opacity:1"><use y="285.609" x="224.671" xlink:href="#p" width="100%" height="100%"/><use y="285.609" x="229.098" xlink:href="#f" width="100%" height="100%"/><use y="285.609" x="233.001" xlink:href="#l" width="100%" height="100%"/><use y="285.609" x="237.982" xlink:href="#i" width="100%" height="100%"/><use y="285.609" x="241.856" xlink:href="#n" width="100%" height="100%"/><use y="285.609" x="246.838" xlink:href="#f" width="100%" height="100%"/><use y="285.609" x="250.74" xlink:href="#d" width="100%" height="100%"/></g><g transform="matrix(.35278 0 0 .35278 -47.306 -45.062)" style="fill:#000;fill-opacity:1"><use y="285.609" x="259.79" xlink:href="#l" width="100%" height="100%"/><use y="285.609" x="264.771" xlink:href="#f" width="100%" height="100%"/><use y="285.609" x="268.674" xlink:href="#p" width="100%" height="100%"/></g><g transform="matrix(.35278 0 0 .35278 -47.306 -45.062)" style="fill:#000;fill-opacity:1"><use y="285.609" x="278.212" xlink:href="#h" width="100%" height="100%"/><use y="285.609" x="283.747" xlink:href="#f" width="100%" height="100%"/><use y="285.609" x="287.649" xlink:href="#p" width="100%" height="100%"/><use y="285.609" x="292.077" xlink:href="#ah" width="100%" height="100%"/><use y="285.609" x="297.612" xlink:href="#v" width="100%" height="100%"/><use y="285.609" x="302.87" xlink:href="#p" width="100%" height="100%"/><use y="285.609" x="307.298" xlink:href="#o" width="100%" height="100%"/></g><use y="285.609" x="317.944" xlink:href="#q" width="100%" height="100%" transform="matrix(.35278 0 0 .35278 -47.306 -45.062)" style="fill:#000;fill-opacity:1"/><use y="285.609" x="325.149" xlink:href="#g" width="100%" height="100%" transform="matrix(.35278 0 0 .35278 -47.306 -45.062)" style="fill:#000;fill-opacity:1"/><g transform="matrix(.35278 0 0 .35278 -47.306 -45.062)" style="fill:#000;fill-opacity:1"><use y="285.609" x="327.906" xlink:href="#i" width="100%" height="100%"/><use y="285.609" x="331.781" xlink:href="#m" width="100%" height="100%"/></g><use y="285.609" x="342.437" xlink:href="#l" width="100%" height="100%" transform="matrix(.35278 0 0 .35278 -47.306 -45.062)" style="fill:#000;fill-opacity:1"/><g transform="matrix(.35278 0 0 .35278 -47.306 -45.062)" style="fill:#000;fill-opacity:1"><use y="285.609" x="352.529" xlink:href="#c" width="100%" height="100%"/><use y="285.609" x="358.064" xlink:href="#l" width="100%" height="100%"/><use y="285.609" x="363.045" xlink:href="#e" width="100%" height="100%"/></g><g transform="matrix(.35278 0 0 .35278 -47.306 -45.062)" style="fill:#000;fill-opacity:1"><use y="285.609" x="367.204" xlink:href="#ab" width="100%" height="100%"/><use y="285.609" x="372.462" xlink:href="#d" width="100%" height="100%"/><use y="285.609" x="376.391" xlink:href="#N" width="100%" height="100%"/><use y="285.609" x="379.159" xlink:href="#l" width="100%" height="100%"/><use y="285.609" x="384.14" xlink:href="#d" width="100%" height="100%"/><use y="285.609" x="388.069" xlink:href="#m" width="100%" height="100%"/></g><g transform="matrix(.35278 0 0 .35278 -47.306 -45.062)" style="fill:#000;fill-opacity:1"><use y="285.609" x="398.715" xlink:href="#l" width="100%" height="100%"/><use y="285.609" x="403.697" xlink:href="#d" width="100%" height="100%"/></g><use y="285.609" x="412.737" xlink:href="#d" width="100%" height="100%" transform="matrix(.35278 0 0 .35278 -47.306 -45.062)" style="fill:#000;fill-opacity:1"/><use y="285.609" x="416.676" xlink:href="#g" width="100%" height="100%" transform="matrix(.35278 0 0 .35278 -47.306 -45.062)" style="fill:#000;fill-opacity:1"/><g transform="matrix(.35278 0 0 .35278 -47.306 -45.062)" style="fill:#000;fill-opacity:1"><use y="285.609" x="419.434" xlink:href="#j" width="100%" height="100%"/><use y="285.609" x="424.969" xlink:href="#F" width="100%" height="100%"/></g><use y="285.609" x="428.848" xlink:href="#ai" width="100%" height="100%" transform="matrix(.35278 0 0 .35278 -47.306 -45.062)" style="fill:#000;fill-opacity:1"/><g transform="matrix(.35278 0 0 .35278 -47.306 -45.062)" style="fill:#000;fill-opacity:1"><use y="285.609" x="435.009" xlink:href="#K" width="100%" height="100%"/><use y="285.609" x="438.883" xlink:href="#aj" width="100%" height="100%"/></g><g transform="matrix(.35278 0 0 .35278 -47.306 -45.062)" style="fill:#000;fill-opacity:1"><use y="285.609" x="447.21" xlink:href="#e" width="100%" height="100%"/><use y="285.609" x="451.638" xlink:href="#n" width="100%" height="100%"/><use y="285.609" x="456.619" xlink:href="#d" width="100%" height="100%"/></g><use y="285.609" x="460.558" xlink:href="#F" width="100%" height="100%" transform="matrix(.35278 0 0 .35278 -47.306 -45.062)" style="fill:#000;fill-opacity:1"/><use y="285.609" x="464.428" xlink:href="#ak" width="100%" height="100%" transform="matrix(.35278 0 0 .35278 -47.306 -45.062)" style="fill:#000;fill-opacity:1"/><g transform="matrix(.35278 0 0 .35278 -47.306 -45.062)" style="fill:#000;fill-opacity:1"><use y="285.609" x="470.838" xlink:href="#K" width="100%" height="100%"/><use y="285.609" x="474.712" xlink:href="#aj" width="100%" height="100%"/></g><g transform="matrix(.35278 0 0 .35278 -47.306 -45.062)" style="fill:#000;fill-opacity:1"><use y="297.564" x="133.768" xlink:href="#N" width="100%" height="100%"/><use y="297.564" x="136.536" xlink:href="#n" width="100%" height="100%"/><use y="297.564" x="141.517" xlink:href="#M" width="100%" height="100%"/></g><use y="297.564" x="146.638" xlink:href="#F" width="100%" height="100%" transform="matrix(.35278 0 0 .35278 -47.306 -45.062)" style="fill:#000;fill-opacity:1"/><use y="297.564" x="150.511" xlink:href="#G" width="100%" height="100%" transform="matrix(.35278 0 0 .35278 -47.306 -45.062)" style="fill:#000;fill-opacity:1"/><use y="297.564" x="156.205" xlink:href="#K" width="100%" height="100%" transform="matrix(.35278 0 0 .35278 -47.306 -45.062)" style="fill:#000;fill-opacity:1"/><g transform="matrix(.35278 0 0 .35278 -47.306 -45.062)" style="fill:#000;fill-opacity:1"><use y="297.564" x="163.397" xlink:href="#p" width="100%" height="100%"/><use y="297.564" x="167.824" xlink:href="#i" width="100%" height="100%"/><use y="297.564" x="171.699" xlink:href="#e" width="100%" height="100%"/><use y="297.564" x="176.126" xlink:href="#t" width="100%" height="100%"/></g></svg>