<svg xmlns="http://www.w3.org/2000/svg" xmlns:xlink="http://www.w3.org/1999/xlink" viewBox="0 0 136.724 9.311" height="35.191" width="516.752"><defs><symbol overflow="visible" id="a"><path style="stroke:none" d="M8.313-2.766c0-.046.046-.125.046-.171a.123.123 0 0 0-.125-.126.142.142 0 0 0-.109.047c-.016.016-.016.047-.125.282-.703 1.671-1.219 2.39-3.14 2.39H3.124c-.172 0-.203 0-.266-.015-.14-.016-.14-.032-.14-.125 0-.094.015-.157.047-.266l.812-3.297h1.188c.937 0 1 .203 1 .563 0 .109 0 .218-.079.578-.015.047-.03.094-.03.14 0 .079.062.11.124.11.11 0 .125-.078.172-.25l.688-2.766a.123.123 0 0 0-.125-.125c-.11 0-.125.047-.172.219-.235.922-.469 1.172-1.532 1.172h-1.14l.734-2.938c.11-.406.14-.453.625-.453h1.703c1.485 0 1.782.39 1.782 1.313 0 0 0 .343-.047.734a.793.793 0 0 0-.031.14c0 .094.062.141.14.141.078 0 .125-.047.14-.265l.266-2.094c0-.031.016-.156.016-.188 0-.125-.11-.125-.328-.125H2.844c-.219 0-.344 0-.344.22 0 .124.078.124.281.124.75 0 .75.094.75.219 0 .062-.015.11-.047.234L1.86-.89c-.109.422-.125.547-.968.547-.22 0-.344 0-.344.219C.547 0 .625 0 .859 0h6c.266 0 .282-.016.36-.203Zm0 0"/></symbol><symbol overflow="visible" id="c"><path style="stroke:none" d="M2.469-3.5c.015-.078.312-.672.765-1.047a1.639 1.639 0 0 1 1.172-.484c.485 0 .657.36.657.828 0 .078 0 .312-.157.875L4.61-2.094c-.093.36-.312 1.25-.343 1.375-.047.188-.125.485-.125.547 0 .156.14.297.312.297.36 0 .422-.281.531-.703l.72-2.86c.015-.093.64-1.593 1.952-1.593.485 0 .657.36.657.828 0 .672-.47 1.984-.735 2.703-.11.281-.172.438-.172.656 0 .531.375.969.953.969 1.11 0 1.532-1.766 1.532-1.828 0-.063-.047-.11-.125-.11-.11 0-.125.032-.172.235-.281.953-.719 1.453-1.203 1.453-.125 0-.313 0-.313-.39 0-.313.14-.688.188-.829.218-.562.765-1.984.765-2.672 0-.718-.422-1.25-1.328-1.25-.812 0-1.453.454-1.937 1.157-.032-.641-.422-1.157-1.313-1.157-1.078 0-1.625.75-1.844 1.047-.046-.687-.53-1.047-1.062-1.047-.344 0-.61.157-.844.61C.484-4.22.328-3.484.328-3.438c0 .047.047.11.125.11.094 0 .11-.016.188-.297.171-.703.406-1.406.875-1.406.28 0 .375.187.375.547 0 .265-.125.734-.204 1.109l-.343 1.281c-.047.235-.172.766-.235.985-.078.312-.218.875-.218.937 0 .156.14.297.312.297.14 0 .313-.078.406-.25.032-.063.141-.484.204-.719l.25-1.078zm0 0"/></symbol><symbol overflow="visible" id="d"><path style="stroke:none" d="M4.672-4.5c-.219 0-.328 0-.5.156-.078.047-.203.235-.203.422 0 .235.172.39.406.39.281 0 .61-.25.61-.718 0-.578-.548-1.016-1.376-1.016-1.562 0-3.125 1.704-3.125 3.407 0 1.03.641 1.984 1.86 1.984C3.969.125 5-1.141 5-1.297c0-.078-.078-.14-.125-.14-.031 0-.047.015-.156.125-.766 1.015-1.89 1.187-2.36 1.187-.812 0-1.078-.719-1.078-1.313 0-.421.203-1.578.625-2.39.313-.563.969-1.203 1.719-1.203.156 0 .813.015 1.047.531zm0 0"/></symbol><symbol overflow="visible" id="b"><path style="stroke:none" d="M8.063-3.875c.171 0 .39 0 .39-.219 0-.218-.203-.218-.39-.218H1.03c-.172 0-.39 0-.39.218 0 .219.203.219.39.219zm0 2.219c.171 0 .39 0 .39-.203 0-.235-.203-.235-.39-.235H1.03c-.172 0-.39 0-.39.219s.203.219.39.219zm0 0"/></symbol><symbol overflow="visible" id="f"><path style="stroke:none" d="M2.078-7.36a.59.59 0 0 0-.578-.593.577.577 0 0 0-.578.578c0 .36.281.578.578.578.36 0 .578-.297.578-.562zM.438-5.14v.343c.75 0 .859.078.859.656v3.25c0 .547-.125.547-.906.547V0c.343-.031.906-.031 1.265-.031.125 0 .813 0 1.219.031v-.344c-.766 0-.813-.062-.813-.531v-4.39zm0 0"/></symbol><symbol overflow="visible" id="g"><path style="stroke:none" d="M3.922-5.063c0-.203 0-.265-.125-.265-.094 0-.313.266-.406.375-.36-.313-.735-.375-1.125-.375C.828-5.328.39-4.547.39-3.891c0 .141 0 .563.453.97.39.343.797.421 1.344.53.656.125.812.172 1.109.407a.97.97 0 0 1 .375.78c0 .516-.297 1.079-1.36 1.079-.78 0-1.359-.453-1.624-1.64C.64-1.986.64-2 .64-2.016c-.032-.047-.079-.047-.11-.047-.14 0-.14.062-.14.28v1.626c0 .218 0 .281.125.281.062 0 .062-.016.265-.266.063-.093.063-.109.25-.296.453.562 1.094.562 1.297.562 1.25 0 1.875-.703 1.875-1.64 0-.641-.39-1.032-.5-1.141-.422-.375-.75-.438-1.547-.578-.344-.079-1.219-.25-1.219-.97 0-.359.25-.905 1.329-.905C3.562-5.11 3.64-4 3.656-3.641c.016.11.094.11.14.11.126 0 .126-.063.126-.281zm0 0"/></symbol><symbol overflow="visible" id="h"><path style="stroke:none" d="M2.016-4.813h1.671v-.343H2.016v-2.188H1.75c-.016 1.11-.453 2.266-1.531 2.297v.234h1.015v3.329C1.234-.156 2.11.125 2.75.125c.75 0 1.14-.75 1.14-1.61v-.671h-.25v.656c0 .86-.359 1.36-.812 1.36-.812 0-.812-1.11-.812-1.313zm0 0"/></symbol><symbol overflow="visible" id="i"><path style="stroke:none" d="M4.844-4c.312-.797.875-.813 1.11-.813v-.343c-.345.031-.516.031-.891.031-.282 0-.313 0-.97-.031v.343c.438.032.548.313.548.516 0 .11-.032.172-.079.297L3.345-.984 2.016-4.25c-.063-.156-.063-.234-.063-.25 0-.313.406-.313.656-.313v-.343c-.312.031-.906.031-1.234.031-.453 0-.484 0-1.156-.031v.343c.687 0 .781.063.937.438L2.938 0c-.516 1.266-.516 1.297-.579 1.39-.203.36-.515.813-1.062.813-.36 0-.594-.219-.594-.219s.422-.046.422-.468a.436.436 0 0 0-.438-.438c-.203 0-.453.11-.453.469 0 .453.438.89 1.063.89.672 0 1.172-.578 1.469-1.343zm0 0"/></symbol><symbol overflow="visible" id="j"><path style="stroke:none" d="M2.922 1.969c-.766 0-.906 0-.906-.532V-.64c.218.297.703.766 1.468.766 1.375 0 2.594-1.172 2.594-2.703 0-1.516-1.125-2.688-2.437-2.688-1.047 0-1.61.75-1.641.797v-.797L.328-5.14v.344c.844 0 .922.094.922.61v5.625c0 .53-.14.53-.922.53v.345c.313-.016.969-.016 1.297-.016.344 0 1 0 1.297.015zm-.906-5.782c0-.234 0-.234.14-.437.36-.531.938-.766 1.39-.766.907 0 1.61 1.094 1.61 2.438 0 1.422-.812 2.453-1.718 2.453a1.49 1.49 0 0 1-.97-.375c-.265-.281-.452-.516-.452-.844Zm0 0"/></symbol><symbol overflow="visible" id="k"><path style="stroke:none" d="M4.578-2.766c.266 0 .281 0 .281-.234 0-1.203-.64-2.328-2.093-2.328-1.36 0-2.407 1.234-2.407 2.703 0 1.578 1.22 2.75 2.547 2.75 1.422 0 1.953-1.297 1.953-1.547 0-.078-.046-.125-.125-.125-.093 0-.125.063-.14.125-.313 1-1.11 1.281-1.625 1.281-.5 0-1.703-.343-1.703-2.406v-.219zM1.281-3c.094-1.875 1.14-2.094 1.485-2.094 1.28 0 1.343 1.688 1.359 2.094zm0 0"/></symbol><symbol overflow="visible" id="l"><path style="stroke:none" d="M5.313-2.906c0-1.11 0-1.438-.266-1.828-.344-.47-.906-.532-1.313-.532-1.171 0-1.625.985-1.718 1.22v-1.22L.375-5.14v.344c.813 0 .922.094.922.672v3.234c0 .547-.14.547-.922.547V0c.313-.031.969-.031 1.297-.031.344 0 1 0 1.297.031v-.344c-.75 0-.906 0-.906-.547v-2.218c0-1.25.828-1.922 1.578-1.922.734 0 .906.61.906 1.343V-.89c0 .547-.14.547-.906.547V0c.296-.031.953-.031 1.28-.031.345 0 1 0 1.313.031v-.344c-.609 0-.906 0-.921-.36zm0 0"/></symbol><symbol overflow="visible" id="m"><path style="stroke:none" d="M4.61-3.188c0-.656 0-1.124-.516-1.593a2.242 2.242 0 0 0-1.485-.547c-.984 0-1.734.64-1.734 1.422 0 .344.219.515.5.515s.484-.203.484-.5c0-.484-.421-.484-.609-.484.281-.5.86-.719 1.328-.719.547 0 1.266.453 1.266 1.532v.484C1.438-3.047.53-2.047.53-1.125c0 .953 1.094 1.25 1.828 1.25.782 0 1.329-.484 1.547-1.063.047.563.422 1 .938 1 .25 0 .937-.171.937-1.125v-.671h-.265v.671c0 .688-.282.782-.454.782-.453 0-.453-.64-.453-.813zm-.766 1.5c0 1.172-.875 1.563-1.39 1.563-.595 0-1.079-.422-1.079-1 0-1.578 2.031-1.719 2.469-1.75zm0 0"/></symbol><symbol overflow="visible" id="n"><path style="stroke:none" d="M2-2.781c0-1.156.469-2.25 1.39-2.25.094 0 .126 0 .172.015-.093.047-.28.11-.28.438 0 .344.265.484.452.484.25 0 .485-.156.485-.484 0-.36-.328-.688-.844-.688-1.016 0-1.36 1.094-1.422 1.329h-.016v-1.329L.329-5.14v.344c.813 0 .922.094.922.672v3.234c0 .547-.14.547-.922.547V0c.344-.031 1-.031 1.36-.031.328 0 1.171 0 1.437.031v-.344h-.234C2.016-.344 2-.484 2-.906Zm0 0"/></symbol><symbol overflow="visible" id="o"><path style="stroke:none" d="M1.422-2.156c.562.36 1.047.36 1.172.36 1.078 0 1.875-.813 1.875-1.735 0-.313-.094-.766-.469-1.156.453-.47 1.016-.47 1.078-.47.047 0 .11 0 .156.016-.125.047-.171.172-.171.297 0 .172.109.313.296.313.11 0 .313-.063.313-.328a.556.556 0 0 0-.578-.547c-.625 0-1.094.39-1.25.562a2.067 2.067 0 0 0-1.235-.422c-1.078 0-1.875.813-1.875 1.735 0 .672.407 1.11.532 1.219-.141.187-.36.53-.36 1 0 .687.422.984.516 1.046C.875-.109.328.328.328.938c0 .828 1.125 1.515 2.594 1.515 1.422 0 2.594-.64 2.594-1.531 0-.297-.079-1-.797-1.375-.61-.313-1.203-.313-2.235-.313-.734 0-.812 0-1.03-.218a.982.982 0 0 1-.22-.61c0-.203.063-.406.188-.562zm1.187.11c-1.062 0-1.062-1.204-1.062-1.485 0-.203 0-.703.203-1.016.234-.36.594-.469.844-.469 1.047 0 1.047 1.204 1.047 1.485 0 .203 0 .703-.204 1.015a.97.97 0 0 1-.828.47zm.313 4.25C1.782 2.203.906 1.608.906.936c0-.093.031-.562.485-.875.265-.171.359-.171 1.203-.171.984 0 2.344 0 2.344 1.046 0 .704-.907 1.266-2.016 1.266zm0 0"/></symbol><symbol overflow="visible" id="p"><path style="stroke:none" d="M5.313-2.906c0-1.11 0-1.438-.266-1.828-.344-.47-.906-.532-1.313-.532-1.03 0-1.515.766-1.671 1.141h-.016v-4.172l-1.672.14v.345c.813 0 .922.078.922.671v6.25c0 .547-.14.547-.922.547V0c.313-.031.969-.031 1.297-.031.344 0 1 0 1.297.031v-.344c-.75 0-.906 0-.906-.547v-2.218c0-1.25.828-1.922 1.578-1.922.734 0 .906.61.906 1.343V-.89c0 .547-.14.547-.906.547V0c.296-.031.953-.031 1.28-.031.345 0 1 0 1.313.031v-.344c-.609 0-.906 0-.921-.36zm0 0"/></symbol><symbol overflow="visible" id="q"><path style="stroke:none" d="M3.64-5.14v.343c.813 0 .907.094.907.672v2.14c0 1.016-.547 1.86-1.438 1.86-.984 0-1.046-.563-1.046-1.188v-3.953L.375-5.14v.344c.922 0 .922.047.922 1.11v1.78c0 .75 0 1.173.36 1.579.28.297.765.453 1.374.453.203 0 .594 0 1-.36.344-.265.532-.718.532-.718V.125L6.234 0v-.344c-.812 0-.921-.094-.921-.672v-4.25zm0 0"/></symbol><symbol overflow="visible" id="r"><path style="stroke:none" d="m2.063-8.297-1.672.14v.345c.812 0 .906.078.906.671v6.25c0 .547-.125.547-.906.547V0c.343-.031.921-.031 1.28-.031.36 0 .954 0 1.298.031v-.344c-.766 0-.906 0-.906-.547zm0 0"/></symbol><symbol overflow="visible" id="s"><path style="stroke:none" d="M8.578-2.906c0-1.11 0-1.438-.281-1.828-.344-.47-.906-.532-1.313-.532-1 0-1.5.72-1.687 1.172-.172-.922-.813-1.172-1.563-1.172-1.171 0-1.625.985-1.718 1.22v-1.22L.375-5.14v.344c.813 0 .922.094.922.672v3.234c0 .547-.14.547-.922.547V0c.313-.031.969-.031 1.297-.031.344 0 1 0 1.297.031v-.344c-.75 0-.906 0-.906-.547v-2.218c0-1.25.828-1.922 1.578-1.922.734 0 .906.61.906 1.343V-.89c0 .547-.14.547-.906.547V0c.296-.031.953-.031 1.28-.031.345 0 1 0 1.313.031v-.344c-.765 0-.921 0-.921-.547v-2.218c0-1.25.828-1.922 1.578-1.922.734 0 .906.61.906 1.343V-.89c0 .547-.14.547-.906.547V0c.312-.031.953-.031 1.28-.031.345 0 1 0 1.313.031v-.344c-.609 0-.906 0-.906-.36zm0 0"/></symbol><symbol overflow="visible" id="t"><path style="stroke:none" d="M5.484-2.563c0-1.53-1.171-2.765-2.562-2.765C1.5-5.328.359-4.062.359-2.562.36-1.032 1.547.124 2.922.124c1.406 0 2.562-1.172 2.562-2.688zM2.922-.14c-.438 0-.969-.187-1.313-.78-.328-.532-.343-1.235-.343-1.75 0-.454 0-1.173.375-1.72.328-.515.859-.703 1.28-.703.454 0 .97.219 1.282.688.375.547.375 1.297.375 1.734 0 .422 0 1.172-.312 1.735-.329.562-.891.796-1.344.796Zm0 0"/></symbol><symbol overflow="visible" id="u"><path style="stroke:none" d="M3.578-8.156v.344c.828 0 .922.078.922.671V-4.5A1.829 1.829 0 0 0 3-5.266C1.61-5.266.422-4.094.422-2.562.422-1.048 1.547.124 2.875.124c.906 0 1.422-.61 1.594-.828v.828L6.156 0v-.344c-.812 0-.906-.094-.906-.672v-7.28zm.89 6.75c0 .218 0 .265-.171.515-.281.422-.766.766-1.375.766-.297 0-1.594-.11-1.594-2.438 0-.859.14-1.328.406-1.734.235-.36.72-.734 1.313-.734.75 0 1.156.531 1.281.734.14.203.14.219.14.438zm0 0"/></symbol><symbol overflow="visible" id="v"><path style="stroke:none" d="M11.688-3.063v-.234H0v.235Zm0 0"/></symbol><symbol overflow="visible" id="w"><path style="stroke:none" d="M2.328.047c0-.735-.25-1.203-.719-1.203-.343 0-.562.265-.562.578 0 .312.219.578.578.578a.605.605 0 0 0 .39-.14c.032-.032.047-.032.047-.032.032 0 .032.156.032.219 0 .765-.313 1.484-.844 2.031-.047.031-.063.063-.063.11 0 .062.063.124.125.124.11 0 1.016-.89 1.016-2.265zm0 0"/></symbol><symbol overflow="visible" id="x"><path style="stroke:none" d="M2.203-.578a.587.587 0 0 0-.578-.578.567.567 0 0 0-.578.578c0 .344.297.578.562.578a.58.58 0 0 0 .594-.578Zm0 0"/></symbol><symbol overflow="visible" id="e"><path style="stroke:none" d="M2.25-1.625c.125-.125.453-.39.594-.5.484-.453.953-.89.953-1.61 0-.953-.797-1.562-1.781-1.562-.97 0-1.594.719-1.594 1.438 0 .39.312.437.422.437.172 0 .422-.11.422-.422 0-.406-.407-.406-.5-.406.234-.594.765-.781 1.156-.781.734 0 1.125.625 1.125 1.297 0 .828-.578 1.437-1.531 2.39l-1 1.047C.422-.219.422-.203.422 0h3.14l.235-1.422h-.25c-.016.156-.078.547-.172.703-.047.063-.656.063-.781.063H1.172Zm0 0"/></symbol></defs><use y="137.754" x="128.413" xlink:href="#a" width="100%" height="100%" style="fill:#000;fill-opacity:1" transform="matrix(.35278 0 0 .35278 -39.223 -45.197)"/><use y="137.754" x="142.135" xlink:href="#b" width="100%" height="100%" style="fill:#000;fill-opacity:1" transform="matrix(.35278 0 0 .35278 -39.223 -45.197)"/><g style="fill:#000;fill-opacity:1" transform="matrix(.35278 0 0 .35278 -39.223 -45.197)"><use y="137.754" x="155.596" xlink:href="#c" width="100%" height="100%"/><use y="137.754" x="165.836" xlink:href="#d" width="100%" height="100%"/></g><use y="133.415" x="170.873" xlink:href="#e" width="100%" height="100%" style="fill:#000;fill-opacity:1" transform="matrix(.35278 0 0 .35278 -39.223 -45.197)"/><g style="fill:#000;fill-opacity:1" transform="matrix(.35278 0 0 .35278 -39.223 -45.197)"><use y="137.754" x="180.116" xlink:href="#f" width="100%" height="100%"/><use y="137.754" x="183.368" xlink:href="#g" width="100%" height="100%"/></g><use y="137.754" x="192.492" xlink:href="#h" width="100%" height="100%" style="fill:#000;fill-opacity:1" transform="matrix(.35278 0 0 .35278 -39.223 -45.197)"/><g style="fill:#000;fill-opacity:1" transform="matrix(.35278 0 0 .35278 -39.223 -45.197)"><use y="137.754" x="196.722" xlink:href="#i" width="100%" height="100%"/><use y="137.754" x="202.9" xlink:href="#j" width="100%" height="100%"/></g><g style="fill:#000;fill-opacity:1" transform="matrix(.35278 0 0 .35278 -39.223 -45.197)"><use y="137.754" x="209.727" xlink:href="#k" width="100%" height="100%"/><use y="137.754" x="214.93" xlink:href="#g" width="100%" height="100%"/><use y="137.754" x="219.547" xlink:href="#k" width="100%" height="100%"/><use y="137.754" x="224.75" xlink:href="#h" width="100%" height="100%"/></g><g style="fill:#000;fill-opacity:1" transform="matrix(.35278 0 0 .35278 -39.223 -45.197)"><use y="137.754" x="233.809" xlink:href="#f" width="100%" height="100%"/><use y="137.754" x="237.061" xlink:href="#l" width="100%" height="100%"/></g><use y="137.754" x="248.084" xlink:href="#m" width="100%" height="100%" style="fill:#000;fill-opacity:1" transform="matrix(.35278 0 0 .35278 -39.223 -45.197)"/><g style="fill:#000;fill-opacity:1" transform="matrix(.35278 0 0 .35278 -39.223 -45.197)"><use y="137.754" x="258.444" xlink:href="#j" width="100%" height="100%"/><use y="137.754" x="264.948" xlink:href="#m" width="100%" height="100%"/><use y="137.754" x="270.801" xlink:href="#n" width="100%" height="100%"/><use y="137.754" x="275.354" xlink:href="#m" width="100%" height="100%"/><use y="137.754" x="281.207" xlink:href="#o" width="100%" height="100%"/><use y="137.754" x="287.06" xlink:href="#n" width="100%" height="100%"/><use y="137.754" x="291.613" xlink:href="#m" width="100%" height="100%"/><use y="137.754" x="297.466" xlink:href="#j" width="100%" height="100%"/><use y="137.754" x="303.969" xlink:href="#p" width="100%" height="100%"/></g><g style="fill:#000;fill-opacity:1" transform="matrix(.35278 0 0 .35278 -39.223 -45.197)"><use y="137.754" x="314.98" xlink:href="#q" width="100%" height="100%"/><use y="137.754" x="321.484" xlink:href="#g" width="100%" height="100%"/><use y="137.754" x="326.101" xlink:href="#f" width="100%" height="100%"/><use y="137.754" x="329.353" xlink:href="#l" width="100%" height="100%"/><use y="137.754" x="335.856" xlink:href="#o" width="100%" height="100%"/></g><g style="fill:#000;fill-opacity:1" transform="matrix(.35278 0 0 .35278 -39.223 -45.197)"><use y="137.754" x="346.217" xlink:href="#f" width="100%" height="100%"/><use y="137.754" x="349.469" xlink:href="#l" width="100%" height="100%"/><use y="137.754" x="355.972" xlink:href="#r" width="100%" height="100%"/><use y="137.754" x="359.224" xlink:href="#f" width="100%" height="100%"/><use y="137.754" x="362.476" xlink:href="#l" width="100%" height="100%"/><use y="137.754" x="368.979" xlink:href="#k" width="100%" height="100%"/></g><g style="fill:#000;fill-opacity:1" transform="matrix(.35278 0 0 .35278 -39.223 -45.197)"><use y="137.754" x="378.689" xlink:href="#s" width="100%" height="100%"/><use y="137.754" x="388.445" xlink:href="#m" width="100%" height="100%"/><use y="137.754" x="394.298" xlink:href="#h" width="100%" height="100%"/><use y="137.754" x="398.851" xlink:href="#p" width="100%" height="100%"/></g><g style="fill:#000;fill-opacity:1" transform="matrix(.35278 0 0 .35278 -39.223 -45.197)"><use y="137.754" x="409.861" xlink:href="#s" width="100%" height="100%"/><use y="137.754" x="419.617" xlink:href="#t" width="100%" height="100%"/></g><g style="fill:#000;fill-opacity:1" transform="matrix(.35278 0 0 .35278 -39.223 -45.197)"><use y="137.754" x="425.793" xlink:href="#u" width="100%" height="100%"/><use y="137.754" x="432.297" xlink:href="#k" width="100%" height="100%"/><use y="137.754" x="437.5" xlink:href="#v" width="100%" height="100%"/><use y="137.754" x="449.206" xlink:href="#m" width="100%" height="100%"/><use y="137.754" x="455.059" xlink:href="#g" width="100%" height="100%"/></g><g style="fill:#000;fill-opacity:1" transform="matrix(.35278 0 0 .35278 -39.223 -45.197)"><use y="137.754" x="464.195" xlink:href="#f" width="100%" height="100%"/><use y="137.754" x="467.447" xlink:href="#g" width="100%" height="100%"/></g><use y="137.754" x="476.57" xlink:href="#a" width="100%" height="100%" style="fill:#000;fill-opacity:1" transform="matrix(.35278 0 0 .35278 -39.223 -45.197)"/><use y="137.754" x="490.293" xlink:href="#b" width="100%" height="100%" style="fill:#000;fill-opacity:1" transform="matrix(.35278 0 0 .35278 -39.223 -45.197)"/><g style="fill:#000;fill-opacity:1" transform="matrix(.35278 0 0 .35278 -39.223 -45.197)"><use y="152.199" x="110.854" xlink:href="#c" width="100%" height="100%"/><use y="152.199" x="121.094" xlink:href="#d" width="100%" height="100%"/></g><use y="147.861" x="126.132" xlink:href="#e" width="100%" height="100%" style="fill:#000;fill-opacity:1" transform="matrix(.35278 0 0 .35278 -39.223 -45.197)"/><use y="152.199" x="130.864" xlink:href="#w" width="100%" height="100%" style="fill:#000;fill-opacity:1" transform="matrix(.35278 0 0 .35278 -39.223 -45.197)"/><g style="fill:#000;fill-opacity:1" transform="matrix(.35278 0 0 .35278 -39.223 -45.197)"><use y="152.199" x="138.013" xlink:href="#m" width="100%" height="100%"/><use y="152.199" x="143.866" xlink:href="#l" width="100%" height="100%"/><use y="152.199" x="150.37" xlink:href="#u" width="100%" height="100%"/></g><g style="fill:#000;fill-opacity:1" transform="matrix(.35278 0 0 .35278 -39.223 -45.197)"><use y="152.199" x="160.783" xlink:href="#g" width="100%" height="100%"/><use y="152.199" x="165.4" xlink:href="#t" width="100%" height="100%"/></g><g style="fill:#000;fill-opacity:1" transform="matrix(.35278 0 0 .35278 -39.223 -45.197)"><use y="152.199" x="175.151" xlink:href="#h" width="100%" height="100%"/><use y="152.199" x="179.703" xlink:href="#t" width="100%" height="100%"/></g><use y="152.199" x="185.879" xlink:href="#t" width="100%" height="100%" style="fill:#000;fill-opacity:1" transform="matrix(.35278 0 0 .35278 -39.223 -45.197)"/><g style="fill:#000;fill-opacity:1" transform="matrix(.35278 0 0 .35278 -39.223 -45.197)"><use y="152.199" x="195.642" xlink:href="#f" width="100%" height="100%"/><use y="152.199" x="198.894" xlink:href="#g" width="100%" height="100%"/></g><use y="152.199" x="207.408" xlink:href="#a" width="100%" height="100%" style="fill:#000;fill-opacity:1" transform="matrix(.35278 0 0 .35278 -39.223 -45.197)"/><use y="152.199" x="220.095" xlink:href="#b" width="100%" height="100%" style="fill:#000;fill-opacity:1" transform="matrix(.35278 0 0 .35278 -39.223 -45.197)"/><g style="fill:#000;fill-opacity:1" transform="matrix(.35278 0 0 .35278 -39.223 -45.197)"><use y="152.199" x="232.52" xlink:href="#c" width="100%" height="100%"/><use y="152.199" x="242.76" xlink:href="#d" width="100%" height="100%"/></g><use y="147.861" x="247.798" xlink:href="#e" width="100%" height="100%" style="fill:#000;fill-opacity:1" transform="matrix(.35278 0 0 .35278 -39.223 -45.197)"/><use y="152.199" x="252.53" xlink:href="#x" width="100%" height="100%" style="fill:#000;fill-opacity:1" transform="matrix(.35278 0 0 .35278 -39.223 -45.197)"/></svg>